<mxfile host="app.diagrams.net" modified="2021-10-21T18:14:55.994Z" agent="5.0 (Windows NT 10.0; Win64; x64) AppleWebKit/537.36 (KHTML, like Gecko) Chrome/94.0.4606.81 Safari/537.36" etag="zNj_U0PTl_WmXN9kTiwk" version="15.5.0" type="github">
  <diagram id="APwjE5iHibtJWHP3hkR3" name="Page-1">
    <mxGraphModel dx="1865" dy="579" grid="1" gridSize="10" guides="1" tooltips="1" connect="1" arrows="1" fold="1" page="1" pageScale="1" pageWidth="827" pageHeight="1169" math="0" shadow="0">
      <root>
        <mxCell id="0" />
        <mxCell id="1" parent="0" />
        <mxCell id="E8Q5wsHKOE7I1cH3qFTq-14" value="Product" style="shape=table;startSize=30;container=1;collapsible=1;childLayout=tableLayout;fixedRows=1;rowLines=0;fontStyle=1;align=center;resizeLast=1;fontSize=14;" parent="1" vertex="1" collapsed="1">
          <mxGeometry x="36" y="360" width="90" height="30" as="geometry">
            <mxRectangle x="40" y="30" width="180" height="220" as="alternateBounds" />
          </mxGeometry>
        </mxCell>
        <mxCell id="E8Q5wsHKOE7I1cH3qFTq-15" value="" style="shape=partialRectangle;collapsible=0;dropTarget=0;pointerEvents=0;fillColor=none;top=0;left=0;bottom=1;right=0;points=[[0,0.5],[1,0.5]];portConstraint=eastwest;fontSize=13;" parent="E8Q5wsHKOE7I1cH3qFTq-14" vertex="1">
          <mxGeometry y="30" width="180" height="30" as="geometry" />
        </mxCell>
        <mxCell id="E8Q5wsHKOE7I1cH3qFTq-16" value="PK" style="shape=partialRectangle;connectable=0;fillColor=none;top=0;left=0;bottom=0;right=0;fontStyle=1;overflow=hidden;fontSize=13;" parent="E8Q5wsHKOE7I1cH3qFTq-15" vertex="1">
          <mxGeometry width="30" height="30" as="geometry">
            <mxRectangle width="30" height="30" as="alternateBounds" />
          </mxGeometry>
        </mxCell>
        <mxCell id="E8Q5wsHKOE7I1cH3qFTq-17" value="id" style="shape=partialRectangle;connectable=0;fillColor=none;top=0;left=0;bottom=0;right=0;align=left;spacingLeft=6;fontStyle=5;overflow=hidden;fontSize=13;" parent="E8Q5wsHKOE7I1cH3qFTq-15" vertex="1">
          <mxGeometry x="30" width="150" height="30" as="geometry">
            <mxRectangle width="150" height="30" as="alternateBounds" />
          </mxGeometry>
        </mxCell>
        <mxCell id="E8Q5wsHKOE7I1cH3qFTq-18" value="" style="shape=partialRectangle;collapsible=0;dropTarget=0;pointerEvents=0;fillColor=none;top=0;left=0;bottom=0;right=0;points=[[0,0.5],[1,0.5]];portConstraint=eastwest;fontSize=13;" parent="E8Q5wsHKOE7I1cH3qFTq-14" vertex="1">
          <mxGeometry y="60" width="180" height="30" as="geometry" />
        </mxCell>
        <mxCell id="E8Q5wsHKOE7I1cH3qFTq-19" value="" style="shape=partialRectangle;connectable=0;fillColor=none;top=0;left=0;bottom=0;right=0;editable=1;overflow=hidden;fontSize=13;" parent="E8Q5wsHKOE7I1cH3qFTq-18" vertex="1">
          <mxGeometry width="30" height="30" as="geometry">
            <mxRectangle width="30" height="30" as="alternateBounds" />
          </mxGeometry>
        </mxCell>
        <mxCell id="E8Q5wsHKOE7I1cH3qFTq-20" value="name" style="shape=partialRectangle;connectable=0;fillColor=none;top=0;left=0;bottom=0;right=0;align=left;spacingLeft=6;overflow=hidden;fontSize=13;" parent="E8Q5wsHKOE7I1cH3qFTq-18" vertex="1">
          <mxGeometry x="30" width="150" height="30" as="geometry">
            <mxRectangle width="150" height="30" as="alternateBounds" />
          </mxGeometry>
        </mxCell>
        <mxCell id="E8Q5wsHKOE7I1cH3qFTq-21" value="" style="shape=partialRectangle;collapsible=0;dropTarget=0;pointerEvents=0;fillColor=none;top=0;left=0;bottom=0;right=0;points=[[0,0.5],[1,0.5]];portConstraint=eastwest;fontSize=13;" parent="E8Q5wsHKOE7I1cH3qFTq-14" vertex="1">
          <mxGeometry y="90" width="180" height="30" as="geometry" />
        </mxCell>
        <mxCell id="E8Q5wsHKOE7I1cH3qFTq-22" value="" style="shape=partialRectangle;connectable=0;fillColor=none;top=0;left=0;bottom=0;right=0;editable=1;overflow=hidden;fontSize=13;" parent="E8Q5wsHKOE7I1cH3qFTq-21" vertex="1">
          <mxGeometry width="30" height="30" as="geometry">
            <mxRectangle width="30" height="30" as="alternateBounds" />
          </mxGeometry>
        </mxCell>
        <mxCell id="E8Q5wsHKOE7I1cH3qFTq-23" value="size" style="shape=partialRectangle;connectable=0;fillColor=none;top=0;left=0;bottom=0;right=0;align=left;spacingLeft=6;overflow=hidden;fontSize=13;" parent="E8Q5wsHKOE7I1cH3qFTq-21" vertex="1">
          <mxGeometry x="30" width="150" height="30" as="geometry">
            <mxRectangle width="150" height="30" as="alternateBounds" />
          </mxGeometry>
        </mxCell>
        <mxCell id="E8Q5wsHKOE7I1cH3qFTq-24" value="" style="shape=partialRectangle;collapsible=0;dropTarget=0;pointerEvents=0;fillColor=none;top=0;left=0;bottom=0;right=0;points=[[0,0.5],[1,0.5]];portConstraint=eastwest;fontSize=13;" parent="E8Q5wsHKOE7I1cH3qFTq-14" vertex="1">
          <mxGeometry y="120" width="180" height="30" as="geometry" />
        </mxCell>
        <mxCell id="E8Q5wsHKOE7I1cH3qFTq-25" value="" style="shape=partialRectangle;connectable=0;fillColor=none;top=0;left=0;bottom=0;right=0;editable=1;overflow=hidden;fontSize=13;" parent="E8Q5wsHKOE7I1cH3qFTq-24" vertex="1">
          <mxGeometry width="30" height="30" as="geometry">
            <mxRectangle width="30" height="30" as="alternateBounds" />
          </mxGeometry>
        </mxCell>
        <mxCell id="E8Q5wsHKOE7I1cH3qFTq-26" value="upc_code" style="shape=partialRectangle;connectable=0;fillColor=none;top=0;left=0;bottom=0;right=0;align=left;spacingLeft=6;overflow=hidden;fontSize=13;" parent="E8Q5wsHKOE7I1cH3qFTq-24" vertex="1">
          <mxGeometry x="30" width="150" height="30" as="geometry">
            <mxRectangle width="150" height="30" as="alternateBounds" />
          </mxGeometry>
        </mxCell>
        <mxCell id="E8Q5wsHKOE7I1cH3qFTq-27" style="shape=partialRectangle;collapsible=0;dropTarget=0;pointerEvents=0;fillColor=none;top=0;left=0;bottom=0;right=0;points=[[0,0.5],[1,0.5]];portConstraint=eastwest;fontSize=13;" parent="E8Q5wsHKOE7I1cH3qFTq-14" vertex="1">
          <mxGeometry y="150" width="180" height="30" as="geometry" />
        </mxCell>
        <mxCell id="E8Q5wsHKOE7I1cH3qFTq-28" style="shape=partialRectangle;connectable=0;fillColor=none;top=0;left=0;bottom=0;right=0;editable=1;overflow=hidden;fontSize=13;" parent="E8Q5wsHKOE7I1cH3qFTq-27" vertex="1">
          <mxGeometry width="30" height="30" as="geometry">
            <mxRectangle width="30" height="30" as="alternateBounds" />
          </mxGeometry>
        </mxCell>
        <mxCell id="E8Q5wsHKOE7I1cH3qFTq-29" value="exp_date" style="shape=partialRectangle;connectable=0;fillColor=none;top=0;left=0;bottom=0;right=0;align=left;spacingLeft=6;overflow=hidden;fontSize=13;" parent="E8Q5wsHKOE7I1cH3qFTq-27" vertex="1">
          <mxGeometry x="30" width="150" height="30" as="geometry">
            <mxRectangle width="150" height="30" as="alternateBounds" />
          </mxGeometry>
        </mxCell>
        <mxCell id="E8Q5wsHKOE7I1cH3qFTq-30" style="shape=partialRectangle;collapsible=0;dropTarget=0;pointerEvents=0;fillColor=none;top=0;left=0;bottom=0;right=0;points=[[0,0.5],[1,0.5]];portConstraint=eastwest;fontSize=13;" parent="E8Q5wsHKOE7I1cH3qFTq-14" vertex="1">
          <mxGeometry y="180" width="180" height="30" as="geometry" />
        </mxCell>
        <mxCell id="E8Q5wsHKOE7I1cH3qFTq-31" style="shape=partialRectangle;connectable=0;fillColor=none;top=0;left=0;bottom=0;right=0;editable=1;overflow=hidden;fontSize=13;" parent="E8Q5wsHKOE7I1cH3qFTq-30" vertex="1">
          <mxGeometry width="30" height="30" as="geometry">
            <mxRectangle width="30" height="30" as="alternateBounds" />
          </mxGeometry>
        </mxCell>
        <mxCell id="E8Q5wsHKOE7I1cH3qFTq-32" value="packaging_type" style="shape=partialRectangle;connectable=0;fillColor=none;top=0;left=0;bottom=0;right=0;align=left;spacingLeft=6;overflow=hidden;fontSize=13;" parent="E8Q5wsHKOE7I1cH3qFTq-30" vertex="1">
          <mxGeometry x="30" width="150" height="30" as="geometry">
            <mxRectangle width="150" height="30" as="alternateBounds" />
          </mxGeometry>
        </mxCell>
        <mxCell id="E8Q5wsHKOE7I1cH3qFTq-37" value="Brands" style="shape=table;startSize=30;container=1;collapsible=1;childLayout=tableLayout;fixedRows=1;rowLines=0;fontStyle=1;align=center;resizeLast=1;fontSize=14;" parent="1" vertex="1" collapsed="1">
          <mxGeometry x="25" y="30" width="80" height="30" as="geometry">
            <mxRectangle x="400" y="30" width="180" height="130" as="alternateBounds" />
          </mxGeometry>
        </mxCell>
        <mxCell id="E8Q5wsHKOE7I1cH3qFTq-38" value="" style="shape=partialRectangle;collapsible=0;dropTarget=0;pointerEvents=0;fillColor=none;top=0;left=0;bottom=1;right=0;points=[[0,0.5],[1,0.5]];portConstraint=eastwest;fontSize=14;" parent="E8Q5wsHKOE7I1cH3qFTq-37" vertex="1">
          <mxGeometry y="30" width="180" height="30" as="geometry" />
        </mxCell>
        <mxCell id="E8Q5wsHKOE7I1cH3qFTq-39" value="PK" style="shape=partialRectangle;connectable=0;fillColor=none;top=0;left=0;bottom=0;right=0;fontStyle=1;overflow=hidden;fontSize=14;" parent="E8Q5wsHKOE7I1cH3qFTq-38" vertex="1">
          <mxGeometry width="30" height="30" as="geometry">
            <mxRectangle width="30" height="30" as="alternateBounds" />
          </mxGeometry>
        </mxCell>
        <mxCell id="E8Q5wsHKOE7I1cH3qFTq-40" value="id" style="shape=partialRectangle;connectable=0;fillColor=none;top=0;left=0;bottom=0;right=0;align=left;spacingLeft=6;fontStyle=5;overflow=hidden;fontSize=14;" parent="E8Q5wsHKOE7I1cH3qFTq-38" vertex="1">
          <mxGeometry x="30" width="150" height="30" as="geometry">
            <mxRectangle width="150" height="30" as="alternateBounds" />
          </mxGeometry>
        </mxCell>
        <mxCell id="E8Q5wsHKOE7I1cH3qFTq-41" value="" style="shape=partialRectangle;collapsible=0;dropTarget=0;pointerEvents=0;fillColor=none;top=0;left=0;bottom=0;right=0;points=[[0,0.5],[1,0.5]];portConstraint=eastwest;fontSize=14;" parent="E8Q5wsHKOE7I1cH3qFTq-37" vertex="1">
          <mxGeometry y="60" width="180" height="30" as="geometry" />
        </mxCell>
        <mxCell id="E8Q5wsHKOE7I1cH3qFTq-42" value="" style="shape=partialRectangle;connectable=0;fillColor=none;top=0;left=0;bottom=0;right=0;editable=1;overflow=hidden;fontSize=14;" parent="E8Q5wsHKOE7I1cH3qFTq-41" vertex="1">
          <mxGeometry width="30" height="30" as="geometry">
            <mxRectangle width="30" height="30" as="alternateBounds" />
          </mxGeometry>
        </mxCell>
        <mxCell id="E8Q5wsHKOE7I1cH3qFTq-43" value="brand_name" style="shape=partialRectangle;connectable=0;fillColor=none;top=0;left=0;bottom=0;right=0;align=left;spacingLeft=6;overflow=hidden;fontSize=14;" parent="E8Q5wsHKOE7I1cH3qFTq-41" vertex="1">
          <mxGeometry x="30" width="150" height="30" as="geometry">
            <mxRectangle width="150" height="30" as="alternateBounds" />
          </mxGeometry>
        </mxCell>
        <mxCell id="E8Q5wsHKOE7I1cH3qFTq-44" value="" style="shape=partialRectangle;collapsible=0;dropTarget=0;pointerEvents=0;fillColor=none;top=0;left=0;bottom=0;right=0;points=[[0,0.5],[1,0.5]];portConstraint=eastwest;fontSize=14;" parent="E8Q5wsHKOE7I1cH3qFTq-37" vertex="1">
          <mxGeometry y="90" width="180" height="30" as="geometry" />
        </mxCell>
        <mxCell id="E8Q5wsHKOE7I1cH3qFTq-45" value="" style="shape=partialRectangle;connectable=0;fillColor=none;top=0;left=0;bottom=0;right=0;editable=1;overflow=hidden;fontSize=14;" parent="E8Q5wsHKOE7I1cH3qFTq-44" vertex="1">
          <mxGeometry width="30" height="30" as="geometry">
            <mxRectangle width="30" height="30" as="alternateBounds" />
          </mxGeometry>
        </mxCell>
        <mxCell id="E8Q5wsHKOE7I1cH3qFTq-46" value="web_site" style="shape=partialRectangle;connectable=0;fillColor=none;top=0;left=0;bottom=0;right=0;align=left;spacingLeft=6;overflow=hidden;fontSize=14;" parent="E8Q5wsHKOE7I1cH3qFTq-44" vertex="1">
          <mxGeometry x="30" width="150" height="30" as="geometry">
            <mxRectangle width="150" height="30" as="alternateBounds" />
          </mxGeometry>
        </mxCell>
        <mxCell id="E8Q5wsHKOE7I1cH3qFTq-50" value="Vendors" style="shape=table;startSize=30;container=1;collapsible=1;childLayout=tableLayout;fixedRows=1;rowLines=0;fontStyle=1;align=center;resizeLast=1;fontSize=14;" parent="1" vertex="1" collapsed="1">
          <mxGeometry x="347" y="30" width="90" height="30" as="geometry">
            <mxRectangle x="660" y="30" width="180" height="190" as="alternateBounds" />
          </mxGeometry>
        </mxCell>
        <mxCell id="E8Q5wsHKOE7I1cH3qFTq-51" value="" style="shape=partialRectangle;collapsible=0;dropTarget=0;pointerEvents=0;fillColor=none;top=0;left=0;bottom=1;right=0;points=[[0,0.5],[1,0.5]];portConstraint=eastwest;fontSize=14;" parent="E8Q5wsHKOE7I1cH3qFTq-50" vertex="1">
          <mxGeometry y="30" width="180" height="30" as="geometry" />
        </mxCell>
        <mxCell id="E8Q5wsHKOE7I1cH3qFTq-52" value="PK" style="shape=partialRectangle;connectable=0;fillColor=none;top=0;left=0;bottom=0;right=0;fontStyle=1;overflow=hidden;fontSize=14;" parent="E8Q5wsHKOE7I1cH3qFTq-51" vertex="1">
          <mxGeometry width="30" height="30" as="geometry">
            <mxRectangle width="30" height="30" as="alternateBounds" />
          </mxGeometry>
        </mxCell>
        <mxCell id="E8Q5wsHKOE7I1cH3qFTq-53" value="id" style="shape=partialRectangle;connectable=0;fillColor=none;top=0;left=0;bottom=0;right=0;align=left;spacingLeft=6;fontStyle=5;overflow=hidden;fontSize=14;" parent="E8Q5wsHKOE7I1cH3qFTq-51" vertex="1">
          <mxGeometry x="30" width="150" height="30" as="geometry">
            <mxRectangle width="150" height="30" as="alternateBounds" />
          </mxGeometry>
        </mxCell>
        <mxCell id="E8Q5wsHKOE7I1cH3qFTq-54" value="" style="shape=partialRectangle;collapsible=0;dropTarget=0;pointerEvents=0;fillColor=none;top=0;left=0;bottom=0;right=0;points=[[0,0.5],[1,0.5]];portConstraint=eastwest;fontSize=14;" parent="E8Q5wsHKOE7I1cH3qFTq-50" vertex="1">
          <mxGeometry y="60" width="180" height="30" as="geometry" />
        </mxCell>
        <mxCell id="E8Q5wsHKOE7I1cH3qFTq-55" value="" style="shape=partialRectangle;connectable=0;fillColor=none;top=0;left=0;bottom=0;right=0;editable=1;overflow=hidden;fontSize=14;" parent="E8Q5wsHKOE7I1cH3qFTq-54" vertex="1">
          <mxGeometry width="30" height="30" as="geometry">
            <mxRectangle width="30" height="30" as="alternateBounds" />
          </mxGeometry>
        </mxCell>
        <mxCell id="E8Q5wsHKOE7I1cH3qFTq-56" value="vendor_name" style="shape=partialRectangle;connectable=0;fillColor=none;top=0;left=0;bottom=0;right=0;align=left;spacingLeft=6;overflow=hidden;fontSize=14;" parent="E8Q5wsHKOE7I1cH3qFTq-54" vertex="1">
          <mxGeometry x="30" width="150" height="30" as="geometry">
            <mxRectangle width="150" height="30" as="alternateBounds" />
          </mxGeometry>
        </mxCell>
        <mxCell id="E8Q5wsHKOE7I1cH3qFTq-57" value="" style="shape=partialRectangle;collapsible=0;dropTarget=0;pointerEvents=0;fillColor=none;top=0;left=0;bottom=0;right=0;points=[[0,0.5],[1,0.5]];portConstraint=eastwest;fontSize=14;" parent="E8Q5wsHKOE7I1cH3qFTq-50" vertex="1">
          <mxGeometry y="90" width="180" height="60" as="geometry" />
        </mxCell>
        <mxCell id="E8Q5wsHKOE7I1cH3qFTq-58" value="" style="shape=partialRectangle;connectable=0;fillColor=none;top=0;left=0;bottom=0;right=0;editable=1;overflow=hidden;fontSize=14;" parent="E8Q5wsHKOE7I1cH3qFTq-57" vertex="1">
          <mxGeometry width="30" height="60" as="geometry">
            <mxRectangle width="30" height="60" as="alternateBounds" />
          </mxGeometry>
        </mxCell>
        <mxCell id="E8Q5wsHKOE7I1cH3qFTq-59" value="address&#xa;    city&#xa;    street" style="shape=partialRectangle;connectable=0;fillColor=none;top=0;left=0;bottom=0;right=0;align=left;spacingLeft=6;overflow=hidden;fontSize=14;" parent="E8Q5wsHKOE7I1cH3qFTq-57" vertex="1">
          <mxGeometry x="30" width="150" height="60" as="geometry">
            <mxRectangle width="150" height="60" as="alternateBounds" />
          </mxGeometry>
        </mxCell>
        <mxCell id="E8Q5wsHKOE7I1cH3qFTq-60" value="" style="shape=partialRectangle;collapsible=0;dropTarget=0;pointerEvents=0;fillColor=none;top=0;left=0;bottom=0;right=0;points=[[0,0.5],[1,0.5]];portConstraint=eastwest;fontSize=14;" parent="E8Q5wsHKOE7I1cH3qFTq-50" vertex="1">
          <mxGeometry y="150" width="180" height="30" as="geometry" />
        </mxCell>
        <mxCell id="E8Q5wsHKOE7I1cH3qFTq-61" value="" style="shape=partialRectangle;connectable=0;fillColor=none;top=0;left=0;bottom=0;right=0;editable=1;overflow=hidden;fontSize=14;" parent="E8Q5wsHKOE7I1cH3qFTq-60" vertex="1">
          <mxGeometry width="30" height="30" as="geometry">
            <mxRectangle width="30" height="30" as="alternateBounds" />
          </mxGeometry>
        </mxCell>
        <mxCell id="E8Q5wsHKOE7I1cH3qFTq-62" value="phone_number" style="shape=partialRectangle;connectable=0;fillColor=none;top=0;left=0;bottom=0;right=0;align=left;spacingLeft=6;overflow=hidden;fontSize=14;" parent="E8Q5wsHKOE7I1cH3qFTq-60" vertex="1">
          <mxGeometry x="30" width="150" height="30" as="geometry">
            <mxRectangle width="150" height="30" as="alternateBounds" />
          </mxGeometry>
        </mxCell>
        <mxCell id="E8Q5wsHKOE7I1cH3qFTq-63" value="Stores" style="shape=table;startSize=30;container=1;collapsible=1;childLayout=tableLayout;fixedRows=1;rowLines=0;fontStyle=1;align=center;resizeLast=1;fontSize=14;" parent="1" vertex="1" collapsed="1">
          <mxGeometry x="469" y="175" width="80" height="30" as="geometry">
            <mxRectangle x="550" y="90" width="180" height="190" as="alternateBounds" />
          </mxGeometry>
        </mxCell>
        <mxCell id="E8Q5wsHKOE7I1cH3qFTq-64" value="" style="shape=partialRectangle;collapsible=0;dropTarget=0;pointerEvents=0;fillColor=none;top=0;left=0;bottom=1;right=0;points=[[0,0.5],[1,0.5]];portConstraint=eastwest;fontSize=14;" parent="E8Q5wsHKOE7I1cH3qFTq-63" vertex="1">
          <mxGeometry y="30" width="180" height="30" as="geometry" />
        </mxCell>
        <mxCell id="E8Q5wsHKOE7I1cH3qFTq-65" value="PK" style="shape=partialRectangle;connectable=0;fillColor=none;top=0;left=0;bottom=0;right=0;fontStyle=1;overflow=hidden;fontSize=14;" parent="E8Q5wsHKOE7I1cH3qFTq-64" vertex="1">
          <mxGeometry width="30" height="30" as="geometry">
            <mxRectangle width="30" height="30" as="alternateBounds" />
          </mxGeometry>
        </mxCell>
        <mxCell id="E8Q5wsHKOE7I1cH3qFTq-66" value="id" style="shape=partialRectangle;connectable=0;fillColor=none;top=0;left=0;bottom=0;right=0;align=left;spacingLeft=6;fontStyle=5;overflow=hidden;fontSize=14;" parent="E8Q5wsHKOE7I1cH3qFTq-64" vertex="1">
          <mxGeometry x="30" width="150" height="30" as="geometry">
            <mxRectangle width="150" height="30" as="alternateBounds" />
          </mxGeometry>
        </mxCell>
        <mxCell id="E8Q5wsHKOE7I1cH3qFTq-67" value="" style="shape=partialRectangle;collapsible=0;dropTarget=0;pointerEvents=0;fillColor=none;top=0;left=0;bottom=0;right=0;points=[[0,0.5],[1,0.5]];portConstraint=eastwest;fontSize=14;" parent="E8Q5wsHKOE7I1cH3qFTq-63" vertex="1">
          <mxGeometry y="60" width="180" height="30" as="geometry" />
        </mxCell>
        <mxCell id="E8Q5wsHKOE7I1cH3qFTq-68" value="" style="shape=partialRectangle;connectable=0;fillColor=none;top=0;left=0;bottom=0;right=0;editable=1;overflow=hidden;fontSize=14;" parent="E8Q5wsHKOE7I1cH3qFTq-67" vertex="1">
          <mxGeometry width="30" height="30" as="geometry">
            <mxRectangle width="30" height="30" as="alternateBounds" />
          </mxGeometry>
        </mxCell>
        <mxCell id="E8Q5wsHKOE7I1cH3qFTq-69" value="store_name" style="shape=partialRectangle;connectable=0;fillColor=none;top=0;left=0;bottom=0;right=0;align=left;spacingLeft=6;overflow=hidden;fontSize=14;" parent="E8Q5wsHKOE7I1cH3qFTq-67" vertex="1">
          <mxGeometry x="30" width="150" height="30" as="geometry">
            <mxRectangle width="150" height="30" as="alternateBounds" />
          </mxGeometry>
        </mxCell>
        <mxCell id="E8Q5wsHKOE7I1cH3qFTq-70" value="" style="shape=partialRectangle;collapsible=0;dropTarget=0;pointerEvents=0;fillColor=none;top=0;left=0;bottom=0;right=0;points=[[0,0.5],[1,0.5]];portConstraint=eastwest;fontSize=14;" parent="E8Q5wsHKOE7I1cH3qFTq-63" vertex="1">
          <mxGeometry y="90" width="180" height="60" as="geometry" />
        </mxCell>
        <mxCell id="E8Q5wsHKOE7I1cH3qFTq-71" value="" style="shape=partialRectangle;connectable=0;fillColor=none;top=0;left=0;bottom=0;right=0;editable=1;overflow=hidden;fontSize=14;" parent="E8Q5wsHKOE7I1cH3qFTq-70" vertex="1">
          <mxGeometry width="30" height="60" as="geometry">
            <mxRectangle width="30" height="60" as="alternateBounds" />
          </mxGeometry>
        </mxCell>
        <mxCell id="E8Q5wsHKOE7I1cH3qFTq-72" value="address&#xa;    city&#xa;    street" style="shape=partialRectangle;connectable=0;fillColor=none;top=0;left=0;bottom=0;right=0;align=left;spacingLeft=6;overflow=hidden;fontSize=14;" parent="E8Q5wsHKOE7I1cH3qFTq-70" vertex="1">
          <mxGeometry x="30" width="150" height="60" as="geometry">
            <mxRectangle width="150" height="60" as="alternateBounds" />
          </mxGeometry>
        </mxCell>
        <mxCell id="E8Q5wsHKOE7I1cH3qFTq-73" value="" style="shape=partialRectangle;collapsible=0;dropTarget=0;pointerEvents=0;fillColor=none;top=0;left=0;bottom=0;right=0;points=[[0,0.5],[1,0.5]];portConstraint=eastwest;fontSize=14;" parent="E8Q5wsHKOE7I1cH3qFTq-63" vertex="1">
          <mxGeometry y="150" width="180" height="30" as="geometry" />
        </mxCell>
        <mxCell id="E8Q5wsHKOE7I1cH3qFTq-74" value="" style="shape=partialRectangle;connectable=0;fillColor=none;top=0;left=0;bottom=0;right=0;editable=1;overflow=hidden;fontSize=14;" parent="E8Q5wsHKOE7I1cH3qFTq-73" vertex="1">
          <mxGeometry width="30" height="30" as="geometry">
            <mxRectangle width="30" height="30" as="alternateBounds" />
          </mxGeometry>
        </mxCell>
        <mxCell id="E8Q5wsHKOE7I1cH3qFTq-75" value="phone_number" style="shape=partialRectangle;connectable=0;fillColor=none;top=0;left=0;bottom=0;right=0;align=left;spacingLeft=6;overflow=hidden;fontSize=14;" parent="E8Q5wsHKOE7I1cH3qFTq-73" vertex="1">
          <mxGeometry x="30" width="150" height="30" as="geometry">
            <mxRectangle width="150" height="30" as="alternateBounds" />
          </mxGeometry>
        </mxCell>
        <mxCell id="E8Q5wsHKOE7I1cH3qFTq-76" value="Orders" style="shape=table;startSize=30;container=1;collapsible=1;childLayout=tableLayout;fixedRows=1;rowLines=0;fontStyle=1;align=center;resizeLast=1;fontSize=14;" parent="1" vertex="1" collapsed="1">
          <mxGeometry x="469" y="300" width="80" height="30" as="geometry">
            <mxRectangle x="400" y="285" width="180" height="190" as="alternateBounds" />
          </mxGeometry>
        </mxCell>
        <mxCell id="E8Q5wsHKOE7I1cH3qFTq-77" value="" style="shape=partialRectangle;collapsible=0;dropTarget=0;pointerEvents=0;fillColor=none;top=0;left=0;bottom=1;right=0;points=[[0,0.5],[1,0.5]];portConstraint=eastwest;fontSize=14;" parent="E8Q5wsHKOE7I1cH3qFTq-76" vertex="1">
          <mxGeometry y="30" width="180" height="30" as="geometry" />
        </mxCell>
        <mxCell id="E8Q5wsHKOE7I1cH3qFTq-78" value="PK" style="shape=partialRectangle;connectable=0;fillColor=none;top=0;left=0;bottom=0;right=0;fontStyle=1;overflow=hidden;fontSize=14;" parent="E8Q5wsHKOE7I1cH3qFTq-77" vertex="1">
          <mxGeometry width="30" height="30" as="geometry">
            <mxRectangle width="30" height="30" as="alternateBounds" />
          </mxGeometry>
        </mxCell>
        <mxCell id="E8Q5wsHKOE7I1cH3qFTq-79" value="id" style="shape=partialRectangle;connectable=0;fillColor=none;top=0;left=0;bottom=0;right=0;align=left;spacingLeft=6;fontStyle=5;overflow=hidden;fontSize=14;" parent="E8Q5wsHKOE7I1cH3qFTq-77" vertex="1">
          <mxGeometry x="30" width="150" height="30" as="geometry">
            <mxRectangle width="150" height="30" as="alternateBounds" />
          </mxGeometry>
        </mxCell>
        <mxCell id="E8Q5wsHKOE7I1cH3qFTq-80" value="" style="shape=partialRectangle;collapsible=0;dropTarget=0;pointerEvents=0;fillColor=none;top=0;left=0;bottom=0;right=0;points=[[0,0.5],[1,0.5]];portConstraint=eastwest;fontSize=14;" parent="E8Q5wsHKOE7I1cH3qFTq-76" vertex="1">
          <mxGeometry y="60" width="180" height="30" as="geometry" />
        </mxCell>
        <mxCell id="E8Q5wsHKOE7I1cH3qFTq-81" value="" style="shape=partialRectangle;connectable=0;fillColor=none;top=0;left=0;bottom=0;right=0;editable=1;overflow=hidden;fontSize=14;" parent="E8Q5wsHKOE7I1cH3qFTq-80" vertex="1">
          <mxGeometry width="30" height="30" as="geometry">
            <mxRectangle width="30" height="30" as="alternateBounds" />
          </mxGeometry>
        </mxCell>
        <mxCell id="E8Q5wsHKOE7I1cH3qFTq-82" value="order_date" style="shape=partialRectangle;connectable=0;fillColor=none;top=0;left=0;bottom=0;right=0;align=left;spacingLeft=6;overflow=hidden;fontSize=14;" parent="E8Q5wsHKOE7I1cH3qFTq-80" vertex="1">
          <mxGeometry x="30" width="150" height="30" as="geometry">
            <mxRectangle width="150" height="30" as="alternateBounds" />
          </mxGeometry>
        </mxCell>
        <mxCell id="E8Q5wsHKOE7I1cH3qFTq-83" value="" style="shape=partialRectangle;collapsible=0;dropTarget=0;pointerEvents=0;fillColor=none;top=0;left=0;bottom=0;right=0;points=[[0,0.5],[1,0.5]];portConstraint=eastwest;fontSize=14;" parent="E8Q5wsHKOE7I1cH3qFTq-76" vertex="1">
          <mxGeometry y="90" width="180" height="30" as="geometry" />
        </mxCell>
        <mxCell id="E8Q5wsHKOE7I1cH3qFTq-84" value="" style="shape=partialRectangle;connectable=0;fillColor=none;top=0;left=0;bottom=0;right=0;editable=1;overflow=hidden;fontSize=14;" parent="E8Q5wsHKOE7I1cH3qFTq-83" vertex="1">
          <mxGeometry width="30" height="30" as="geometry">
            <mxRectangle width="30" height="30" as="alternateBounds" />
          </mxGeometry>
        </mxCell>
        <mxCell id="E8Q5wsHKOE7I1cH3qFTq-85" value="total_sum" style="shape=partialRectangle;connectable=0;fillColor=none;top=0;left=0;bottom=0;right=0;align=left;spacingLeft=6;overflow=hidden;fontSize=14;" parent="E8Q5wsHKOE7I1cH3qFTq-83" vertex="1">
          <mxGeometry x="30" width="150" height="30" as="geometry">
            <mxRectangle width="150" height="30" as="alternateBounds" />
          </mxGeometry>
        </mxCell>
        <mxCell id="E8Q5wsHKOE7I1cH3qFTq-86" value="" style="shape=partialRectangle;collapsible=0;dropTarget=0;pointerEvents=0;fillColor=none;top=0;left=0;bottom=0;right=0;points=[[0,0.5],[1,0.5]];portConstraint=eastwest;fontSize=14;" parent="E8Q5wsHKOE7I1cH3qFTq-76" vertex="1">
          <mxGeometry y="120" width="180" height="30" as="geometry" />
        </mxCell>
        <mxCell id="E8Q5wsHKOE7I1cH3qFTq-87" value="" style="shape=partialRectangle;connectable=0;fillColor=none;top=0;left=0;bottom=0;right=0;editable=1;overflow=hidden;fontSize=14;" parent="E8Q5wsHKOE7I1cH3qFTq-86" vertex="1">
          <mxGeometry width="30" height="30" as="geometry">
            <mxRectangle width="30" height="30" as="alternateBounds" />
          </mxGeometry>
        </mxCell>
        <mxCell id="E8Q5wsHKOE7I1cH3qFTq-88" value="final_sum" style="shape=partialRectangle;connectable=0;fillColor=none;top=0;left=0;bottom=0;right=0;align=left;spacingLeft=6;overflow=hidden;fontSize=14;" parent="E8Q5wsHKOE7I1cH3qFTq-86" vertex="1">
          <mxGeometry x="30" width="150" height="30" as="geometry">
            <mxRectangle width="150" height="30" as="alternateBounds" />
          </mxGeometry>
        </mxCell>
        <mxCell id="E8Q5wsHKOE7I1cH3qFTq-89" style="shape=partialRectangle;collapsible=0;dropTarget=0;pointerEvents=0;fillColor=none;top=0;left=0;bottom=0;right=0;points=[[0,0.5],[1,0.5]];portConstraint=eastwest;fontSize=14;" parent="E8Q5wsHKOE7I1cH3qFTq-76" vertex="1">
          <mxGeometry y="150" width="180" height="30" as="geometry" />
        </mxCell>
        <mxCell id="E8Q5wsHKOE7I1cH3qFTq-90" style="shape=partialRectangle;connectable=0;fillColor=none;top=0;left=0;bottom=0;right=0;editable=1;overflow=hidden;fontSize=14;" parent="E8Q5wsHKOE7I1cH3qFTq-89" vertex="1">
          <mxGeometry width="30" height="30" as="geometry">
            <mxRectangle width="30" height="30" as="alternateBounds" />
          </mxGeometry>
        </mxCell>
        <mxCell id="E8Q5wsHKOE7I1cH3qFTq-91" value="discount" style="shape=partialRectangle;connectable=0;fillColor=none;top=0;left=0;bottom=0;right=0;align=left;spacingLeft=6;overflow=hidden;fontSize=14;" parent="E8Q5wsHKOE7I1cH3qFTq-89" vertex="1">
          <mxGeometry x="30" width="150" height="30" as="geometry">
            <mxRectangle width="150" height="30" as="alternateBounds" />
          </mxGeometry>
        </mxCell>
        <mxCell id="E8Q5wsHKOE7I1cH3qFTq-92" value="Customers" style="shape=table;startSize=30;container=1;collapsible=1;childLayout=tableLayout;fixedRows=1;rowLines=0;fontStyle=1;align=center;resizeLast=1;fontSize=14;" parent="1" vertex="1" collapsed="1">
          <mxGeometry x="734" y="300" width="110" height="30" as="geometry">
            <mxRectangle x="734" y="300" width="180" height="220" as="alternateBounds" />
          </mxGeometry>
        </mxCell>
        <mxCell id="E8Q5wsHKOE7I1cH3qFTq-93" value="" style="shape=partialRectangle;collapsible=0;dropTarget=0;pointerEvents=0;fillColor=none;top=0;left=0;bottom=1;right=0;points=[[0,0.5],[1,0.5]];portConstraint=eastwest;fontSize=14;" parent="E8Q5wsHKOE7I1cH3qFTq-92" vertex="1">
          <mxGeometry y="30" width="180" height="30" as="geometry" />
        </mxCell>
        <mxCell id="E8Q5wsHKOE7I1cH3qFTq-94" value="PK" style="shape=partialRectangle;connectable=0;fillColor=none;top=0;left=0;bottom=0;right=0;fontStyle=1;overflow=hidden;fontSize=14;" parent="E8Q5wsHKOE7I1cH3qFTq-93" vertex="1">
          <mxGeometry width="30" height="30" as="geometry">
            <mxRectangle width="30" height="30" as="alternateBounds" />
          </mxGeometry>
        </mxCell>
        <mxCell id="E8Q5wsHKOE7I1cH3qFTq-95" value="id" style="shape=partialRectangle;connectable=0;fillColor=none;top=0;left=0;bottom=0;right=0;align=left;spacingLeft=6;fontStyle=5;overflow=hidden;fontSize=14;" parent="E8Q5wsHKOE7I1cH3qFTq-93" vertex="1">
          <mxGeometry x="30" width="150" height="30" as="geometry">
            <mxRectangle width="150" height="30" as="alternateBounds" />
          </mxGeometry>
        </mxCell>
        <mxCell id="E8Q5wsHKOE7I1cH3qFTq-96" value="" style="shape=partialRectangle;collapsible=0;dropTarget=0;pointerEvents=0;fillColor=none;top=0;left=0;bottom=0;right=0;points=[[0,0.5],[1,0.5]];portConstraint=eastwest;fontSize=14;" parent="E8Q5wsHKOE7I1cH3qFTq-92" vertex="1">
          <mxGeometry y="60" width="180" height="30" as="geometry" />
        </mxCell>
        <mxCell id="E8Q5wsHKOE7I1cH3qFTq-97" value="" style="shape=partialRectangle;connectable=0;fillColor=none;top=0;left=0;bottom=0;right=0;editable=1;overflow=hidden;fontSize=14;" parent="E8Q5wsHKOE7I1cH3qFTq-96" vertex="1">
          <mxGeometry width="30" height="30" as="geometry">
            <mxRectangle width="30" height="30" as="alternateBounds" />
          </mxGeometry>
        </mxCell>
        <mxCell id="E8Q5wsHKOE7I1cH3qFTq-98" value="name" style="shape=partialRectangle;connectable=0;fillColor=none;top=0;left=0;bottom=0;right=0;align=left;spacingLeft=6;overflow=hidden;fontSize=14;" parent="E8Q5wsHKOE7I1cH3qFTq-96" vertex="1">
          <mxGeometry x="30" width="150" height="30" as="geometry">
            <mxRectangle width="150" height="30" as="alternateBounds" />
          </mxGeometry>
        </mxCell>
        <mxCell id="E8Q5wsHKOE7I1cH3qFTq-99" value="" style="shape=partialRectangle;collapsible=0;dropTarget=0;pointerEvents=0;fillColor=none;top=0;left=0;bottom=0;right=0;points=[[0,0.5],[1,0.5]];portConstraint=eastwest;fontSize=14;" parent="E8Q5wsHKOE7I1cH3qFTq-92" vertex="1">
          <mxGeometry y="90" width="180" height="30" as="geometry" />
        </mxCell>
        <mxCell id="E8Q5wsHKOE7I1cH3qFTq-100" value="" style="shape=partialRectangle;connectable=0;fillColor=none;top=0;left=0;bottom=0;right=0;editable=1;overflow=hidden;fontSize=14;" parent="E8Q5wsHKOE7I1cH3qFTq-99" vertex="1">
          <mxGeometry width="30" height="30" as="geometry">
            <mxRectangle width="30" height="30" as="alternateBounds" />
          </mxGeometry>
        </mxCell>
        <mxCell id="E8Q5wsHKOE7I1cH3qFTq-101" value="phone_number" style="shape=partialRectangle;connectable=0;fillColor=none;top=0;left=0;bottom=0;right=0;align=left;spacingLeft=6;overflow=hidden;fontSize=14;" parent="E8Q5wsHKOE7I1cH3qFTq-99" vertex="1">
          <mxGeometry x="30" width="150" height="30" as="geometry">
            <mxRectangle width="150" height="30" as="alternateBounds" />
          </mxGeometry>
        </mxCell>
        <mxCell id="E8Q5wsHKOE7I1cH3qFTq-102" value="" style="shape=partialRectangle;collapsible=0;dropTarget=0;pointerEvents=0;fillColor=none;top=0;left=0;bottom=0;right=0;points=[[0,0.5],[1,0.5]];portConstraint=eastwest;fontSize=14;" parent="E8Q5wsHKOE7I1cH3qFTq-92" vertex="1">
          <mxGeometry y="120" width="180" height="30" as="geometry" />
        </mxCell>
        <mxCell id="E8Q5wsHKOE7I1cH3qFTq-103" value="" style="shape=partialRectangle;connectable=0;fillColor=none;top=0;left=0;bottom=0;right=0;editable=1;overflow=hidden;fontSize=14;" parent="E8Q5wsHKOE7I1cH3qFTq-102" vertex="1">
          <mxGeometry width="30" height="30" as="geometry">
            <mxRectangle width="30" height="30" as="alternateBounds" />
          </mxGeometry>
        </mxCell>
        <mxCell id="E8Q5wsHKOE7I1cH3qFTq-104" value="e_mail" style="shape=partialRectangle;connectable=0;fillColor=none;top=0;left=0;bottom=0;right=0;align=left;spacingLeft=6;overflow=hidden;fontSize=14;" parent="E8Q5wsHKOE7I1cH3qFTq-102" vertex="1">
          <mxGeometry x="30" width="150" height="30" as="geometry">
            <mxRectangle width="150" height="30" as="alternateBounds" />
          </mxGeometry>
        </mxCell>
        <mxCell id="E8Q5wsHKOE7I1cH3qFTq-105" style="shape=partialRectangle;collapsible=0;dropTarget=0;pointerEvents=0;fillColor=none;top=0;left=0;bottom=0;right=0;points=[[0,0.5],[1,0.5]];portConstraint=eastwest;fontSize=14;" parent="E8Q5wsHKOE7I1cH3qFTq-92" vertex="1">
          <mxGeometry y="150" width="180" height="60" as="geometry" />
        </mxCell>
        <mxCell id="E8Q5wsHKOE7I1cH3qFTq-106" style="shape=partialRectangle;connectable=0;fillColor=none;top=0;left=0;bottom=0;right=0;editable=1;overflow=hidden;fontSize=14;" parent="E8Q5wsHKOE7I1cH3qFTq-105" vertex="1">
          <mxGeometry width="30" height="60" as="geometry">
            <mxRectangle width="30" height="60" as="alternateBounds" />
          </mxGeometry>
        </mxCell>
        <mxCell id="E8Q5wsHKOE7I1cH3qFTq-107" value="address&#xa;    city&#xa;    street" style="shape=partialRectangle;connectable=0;fillColor=none;top=0;left=0;bottom=0;right=0;align=left;spacingLeft=6;overflow=hidden;fontSize=14;" parent="E8Q5wsHKOE7I1cH3qFTq-105" vertex="1">
          <mxGeometry x="30" width="150" height="60" as="geometry">
            <mxRectangle width="150" height="60" as="alternateBounds" />
          </mxGeometry>
        </mxCell>
        <mxCell id="E8Q5wsHKOE7I1cH3qFTq-124" value="Inventory" style="shape=rhombus;perimeter=rhombusPerimeter;whiteSpace=wrap;html=1;align=center;fontSize=14;" parent="1" vertex="1">
          <mxGeometry x="276.5" y="160" width="105" height="60" as="geometry" />
        </mxCell>
        <mxCell id="E8Q5wsHKOE7I1cH3qFTq-125" value="order_items" style="shape=rhombus;perimeter=rhombusPerimeter;whiteSpace=wrap;html=1;align=center;fontSize=14;" parent="1" vertex="1">
          <mxGeometry x="266.5" y="285" width="120" height="60" as="geometry" />
        </mxCell>
        <mxCell id="E8Q5wsHKOE7I1cH3qFTq-131" value="" style="edgeStyle=orthogonalEdgeStyle;fontSize=12;html=1;endArrow=ERmany;startArrow=none;rounded=0;exitX=0.5;exitY=0;exitDx=0;exitDy=0;entryX=0.5;entryY=1;entryDx=0;entryDy=0;" parent="1" source="E8Q5wsHKOE7I1cH3qFTq-33" target="E8Q5wsHKOE7I1cH3qFTq-37" edge="1">
          <mxGeometry width="100" height="100" relative="1" as="geometry">
            <mxPoint x="370" y="290" as="sourcePoint" />
            <mxPoint x="50" y="60" as="targetPoint" />
          </mxGeometry>
        </mxCell>
        <mxCell id="E8Q5wsHKOE7I1cH3qFTq-132" value="" style="edgeStyle=entityRelationEdgeStyle;fontSize=12;html=1;endArrow=ERoneToMany;rounded=0;entryX=1;entryY=0.5;entryDx=0;entryDy=0;exitX=0;exitY=0.5;exitDx=0;exitDy=0;" parent="1" source="E8Q5wsHKOE7I1cH3qFTq-50" target="E8Q5wsHKOE7I1cH3qFTq-37" edge="1">
          <mxGeometry width="100" height="100" relative="1" as="geometry">
            <mxPoint x="594" y="290" as="sourcePoint" />
            <mxPoint x="694" y="190" as="targetPoint" />
          </mxGeometry>
        </mxCell>
        <mxCell id="E8Q5wsHKOE7I1cH3qFTq-121" value="sold_by" style="shape=rhombus;perimeter=rhombusPerimeter;whiteSpace=wrap;html=1;align=center;fontSize=14;" parent="1" vertex="1">
          <mxGeometry x="207" y="15" width="100" height="60" as="geometry" />
        </mxCell>
        <mxCell id="E8Q5wsHKOE7I1cH3qFTq-134" value="" style="edgeStyle=entityRelationEdgeStyle;fontSize=12;html=1;endArrow=ERmany;rounded=0;exitX=1;exitY=0.5;exitDx=0;exitDy=0;entryX=0;entryY=0.5;entryDx=0;entryDy=0;" parent="1" source="E8Q5wsHKOE7I1cH3qFTq-124" target="E8Q5wsHKOE7I1cH3qFTq-63" edge="1">
          <mxGeometry width="100" height="100" relative="1" as="geometry">
            <mxPoint x="439" y="290" as="sourcePoint" />
            <mxPoint x="539" y="190" as="targetPoint" />
          </mxGeometry>
        </mxCell>
        <mxCell id="E8Q5wsHKOE7I1cH3qFTq-142" value="" style="edgeStyle=orthogonalEdgeStyle;fontSize=12;html=1;endArrow=ERmany;rounded=0;exitX=0;exitY=0.5;exitDx=0;exitDy=0;entryX=0.75;entryY=0;entryDx=0;entryDy=0;" parent="1" source="E8Q5wsHKOE7I1cH3qFTq-124" target="E8Q5wsHKOE7I1cH3qFTq-14" edge="1">
          <mxGeometry width="100" height="100" relative="1" as="geometry">
            <mxPoint x="200" y="170" as="sourcePoint" />
            <mxPoint x="75" y="360" as="targetPoint" />
          </mxGeometry>
        </mxCell>
        <mxCell id="E8Q5wsHKOE7I1cH3qFTq-145" value="" style="edgeStyle=elbowEdgeStyle;fontSize=12;html=1;endArrow=ERmany;rounded=0;exitX=0;exitY=0.5;exitDx=0;exitDy=0;entryX=1;entryY=0.5;entryDx=0;entryDy=0;" parent="1" source="E8Q5wsHKOE7I1cH3qFTq-125" target="E8Q5wsHKOE7I1cH3qFTq-14" edge="1">
          <mxGeometry width="100" height="100" relative="1" as="geometry">
            <mxPoint x="-10" y="300" as="sourcePoint" />
            <mxPoint x="250" y="460" as="targetPoint" />
          </mxGeometry>
        </mxCell>
        <mxCell id="E8Q5wsHKOE7I1cH3qFTq-147" value="" style="edgeStyle=entityRelationEdgeStyle;fontSize=12;html=1;endArrow=ERmany;rounded=0;exitX=1;exitY=0.5;exitDx=0;exitDy=0;entryX=0;entryY=0.5;entryDx=0;entryDy=0;" parent="1" source="E8Q5wsHKOE7I1cH3qFTq-125" target="E8Q5wsHKOE7I1cH3qFTq-76" edge="1">
          <mxGeometry width="100" height="100" relative="1" as="geometry">
            <mxPoint x="389" y="300" as="sourcePoint" />
            <mxPoint x="459" y="298" as="targetPoint" />
          </mxGeometry>
        </mxCell>
        <mxCell id="E8Q5wsHKOE7I1cH3qFTq-148" value="" style="edgeStyle=entityRelationEdgeStyle;fontSize=12;html=1;endArrow=ERmany;startArrow=ERmany;rounded=0;exitX=1;exitY=0.5;exitDx=0;exitDy=0;entryX=0;entryY=0.5;entryDx=0;entryDy=0;" parent="1" edge="1">
          <mxGeometry width="100" height="100" relative="1" as="geometry">
            <mxPoint x="543" y="315" as="sourcePoint" />
            <mxPoint x="732.9999999999995" y="315" as="targetPoint" />
          </mxGeometry>
        </mxCell>
        <mxCell id="E8Q5wsHKOE7I1cH3qFTq-122" value="ordered_by" style="shape=rhombus;perimeter=rhombusPerimeter;whiteSpace=wrap;html=1;align=center;fontSize=14;" parent="1" vertex="1">
          <mxGeometry x="590" y="285" width="100" height="60" as="geometry" />
        </mxCell>
        <mxCell id="E8Q5wsHKOE7I1cH3qFTq-149" value="" style="edgeStyle=orthogonalEdgeStyle;fontSize=12;html=1;endArrow=ERmany;startArrow=none;rounded=0;entryX=0.5;entryY=1;entryDx=0;entryDy=0;exitX=0.5;exitY=0;exitDx=0;exitDy=0;" parent="1" source="E8Q5wsHKOE7I1cH3qFTq-123" target="E8Q5wsHKOE7I1cH3qFTq-63" edge="1">
          <mxGeometry width="100" height="100" relative="1" as="geometry">
            <mxPoint x="509" y="290" as="sourcePoint" />
            <mxPoint x="539" y="190" as="targetPoint" />
          </mxGeometry>
        </mxCell>
        <mxCell id="E8Q5wsHKOE7I1cH3qFTq-150" value="price" style="ellipse;whiteSpace=wrap;html=1;align=center;fontSize=14;" parent="1" vertex="1">
          <mxGeometry x="220" y="90" width="100" height="40" as="geometry" />
        </mxCell>
        <mxCell id="E8Q5wsHKOE7I1cH3qFTq-151" value="quantity" style="ellipse;whiteSpace=wrap;html=1;align=center;fontSize=14;" parent="1" vertex="1">
          <mxGeometry x="350" y="90" width="100" height="40" as="geometry" />
        </mxCell>
        <mxCell id="E8Q5wsHKOE7I1cH3qFTq-152" value="quantity" style="ellipse;whiteSpace=wrap;html=1;align=center;fontSize=14;" parent="1" vertex="1">
          <mxGeometry x="277.5" y="370" width="100" height="40" as="geometry" />
        </mxCell>
        <mxCell id="E8Q5wsHKOE7I1cH3qFTq-153" value="" style="endArrow=none;html=1;rounded=0;fontSize=14;edgeStyle=orthogonalEdgeStyle;exitX=0.5;exitY=1;exitDx=0;exitDy=0;entryX=0;entryY=0;entryDx=0;entryDy=0;dashed=1;" parent="1" target="E8Q5wsHKOE7I1cH3qFTq-124" edge="1">
          <mxGeometry relative="1" as="geometry">
            <mxPoint x="269" y="130" as="sourcePoint" />
            <mxPoint x="569" y="240" as="targetPoint" />
          </mxGeometry>
        </mxCell>
        <mxCell id="E8Q5wsHKOE7I1cH3qFTq-154" value="" style="endArrow=none;html=1;rounded=0;fontSize=14;edgeStyle=orthogonalEdgeStyle;exitX=0.5;exitY=1;exitDx=0;exitDy=0;entryX=1;entryY=0;entryDx=0;entryDy=0;dashed=1;" parent="1" target="E8Q5wsHKOE7I1cH3qFTq-124" edge="1">
          <mxGeometry relative="1" as="geometry">
            <mxPoint x="399" y="130" as="sourcePoint" />
            <mxPoint x="569" y="240" as="targetPoint" />
          </mxGeometry>
        </mxCell>
        <mxCell id="E8Q5wsHKOE7I1cH3qFTq-156" value="" style="endArrow=none;html=1;rounded=0;dashed=1;fontSize=14;edgeStyle=orthogonalEdgeStyle;exitX=0.5;exitY=1;exitDx=0;exitDy=0;entryX=0.5;entryY=0;entryDx=0;entryDy=0;" parent="1" source="E8Q5wsHKOE7I1cH3qFTq-125" edge="1">
          <mxGeometry relative="1" as="geometry">
            <mxPoint x="409" y="240" as="sourcePoint" />
            <mxPoint x="326.5" y="370" as="targetPoint" />
          </mxGeometry>
        </mxCell>
        <mxCell id="E8Q5wsHKOE7I1cH3qFTq-33" value="product_brand" style="shape=rhombus;perimeter=rhombusPerimeter;whiteSpace=wrap;html=1;align=center;fontSize=14;" parent="1" vertex="1">
          <mxGeometry x="10" y="135" width="110" height="60" as="geometry" />
        </mxCell>
        <mxCell id="sjmtIl81N6Vw8AuDW3KH-5" value="" style="edgeStyle=orthogonalEdgeStyle;fontSize=12;html=1;endArrow=none;startArrow=ERmany;rounded=0;exitX=0.25;exitY=0;exitDx=0;exitDy=0;entryX=0.5;entryY=1;entryDx=0;entryDy=0;" edge="1" parent="1" source="E8Q5wsHKOE7I1cH3qFTq-14" target="E8Q5wsHKOE7I1cH3qFTq-33">
          <mxGeometry width="100" height="100" relative="1" as="geometry">
            <mxPoint x="30" y="360" as="sourcePoint" />
            <mxPoint x="50" y="60" as="targetPoint" />
            <Array as="points">
              <mxPoint x="63" y="195" />
            </Array>
          </mxGeometry>
        </mxCell>
        <mxCell id="E8Q5wsHKOE7I1cH3qFTq-123" value="odrered_from" style="shape=rhombus;perimeter=rhombusPerimeter;whiteSpace=wrap;html=1;align=center;fontSize=14;" parent="1" vertex="1">
          <mxGeometry x="459" y="220" width="100" height="60" as="geometry" />
        </mxCell>
        <mxCell id="sjmtIl81N6Vw8AuDW3KH-6" value="" style="edgeStyle=orthogonalEdgeStyle;fontSize=12;html=1;endArrow=none;startArrow=ERmany;rounded=0;entryX=0.5;entryY=1;entryDx=0;entryDy=0;exitX=0.5;exitY=0;exitDx=0;exitDy=0;" edge="1" parent="1" source="E8Q5wsHKOE7I1cH3qFTq-76" target="E8Q5wsHKOE7I1cH3qFTq-123">
          <mxGeometry width="100" height="100" relative="1" as="geometry">
            <mxPoint x="509" y="300" as="sourcePoint" />
            <mxPoint x="509" y="195" as="targetPoint" />
          </mxGeometry>
        </mxCell>
        <mxCell id="sjmtIl81N6Vw8AuDW3KH-12" value="{disjoint}" style="ellipse;html=1;fillColor=#000000;strokeColor=#000000;labelPosition=right;align=left;" vertex="1" parent="1">
          <mxGeometry x="79" y="412" width="4" height="4" as="geometry" />
        </mxCell>
        <mxCell id="sjmtIl81N6Vw8AuDW3KH-13" value="" style="edgeStyle=elbowEdgeStyle;html=1;endSize=12;endArrow=block;endFill=0;elbow=horizontal;rounded=0;entryX=0.5;entryY=1;entryDx=0;entryDy=0;" edge="1" source="sjmtIl81N6Vw8AuDW3KH-12" parent="1" target="E8Q5wsHKOE7I1cH3qFTq-14">
          <mxGeometry x="1" relative="1" as="geometry">
            <mxPoint x="81" y="389" as="targetPoint" />
            <Array as="points">
              <mxPoint x="81" y="400" />
            </Array>
          </mxGeometry>
        </mxCell>
        <mxCell id="sjmtIl81N6Vw8AuDW3KH-14" value="" style="edgeStyle=elbowEdgeStyle;html=1;elbow=vertical;verticalAlign=bottom;endArrow=none;rounded=0;" edge="1" parent="1">
          <mxGeometry x="1" relative="1" as="geometry">
            <mxPoint x="250" y="439" as="targetPoint" />
            <mxPoint x="81.00000000000011" y="416.0000000000002" as="sourcePoint" />
          </mxGeometry>
        </mxCell>
        <mxCell id="sjmtIl81N6Vw8AuDW3KH-15" value="" style="edgeStyle=elbowEdgeStyle;html=1;elbow=vertical;verticalAlign=bottom;endArrow=none;rounded=0;entryX=0.5;entryY=0;entryDx=0;entryDy=0;" edge="1" source="sjmtIl81N6Vw8AuDW3KH-12" parent="1" target="sjmtIl81N6Vw8AuDW3KH-18">
          <mxGeometry x="1" relative="1" as="geometry">
            <mxPoint x="11" y="439" as="targetPoint" />
          </mxGeometry>
        </mxCell>
        <mxCell id="sjmtIl81N6Vw8AuDW3KH-18" value="Food" style="shape=table;startSize=30;container=1;collapsible=1;childLayout=tableLayout;fixedRows=1;rowLines=0;fontStyle=1;align=center;resizeLast=1;" vertex="1" collapsed="1" parent="1">
          <mxGeometry x="-300" y="440" width="320" height="30" as="geometry">
            <mxRectangle x="-300" y="440" width="180" height="160" as="alternateBounds" />
          </mxGeometry>
        </mxCell>
        <mxCell id="sjmtIl81N6Vw8AuDW3KH-19" value="" style="shape=partialRectangle;collapsible=0;dropTarget=0;pointerEvents=0;fillColor=none;top=0;left=0;bottom=1;right=0;points=[[0,0.5],[1,0.5]];portConstraint=eastwest;" vertex="1" parent="sjmtIl81N6Vw8AuDW3KH-18">
          <mxGeometry y="30" width="180" height="30" as="geometry" />
        </mxCell>
        <mxCell id="sjmtIl81N6Vw8AuDW3KH-20" value="PK" style="shape=partialRectangle;connectable=0;fillColor=none;top=0;left=0;bottom=0;right=0;fontStyle=1;overflow=hidden;" vertex="1" parent="sjmtIl81N6Vw8AuDW3KH-19">
          <mxGeometry width="30" height="30" as="geometry">
            <mxRectangle width="30" height="30" as="alternateBounds" />
          </mxGeometry>
        </mxCell>
        <mxCell id="sjmtIl81N6Vw8AuDW3KH-21" value="UniqueID" style="shape=partialRectangle;connectable=0;fillColor=none;top=0;left=0;bottom=0;right=0;align=left;spacingLeft=6;fontStyle=5;overflow=hidden;" vertex="1" parent="sjmtIl81N6Vw8AuDW3KH-19">
          <mxGeometry x="30" width="150" height="30" as="geometry">
            <mxRectangle width="150" height="30" as="alternateBounds" />
          </mxGeometry>
        </mxCell>
        <mxCell id="sjmtIl81N6Vw8AuDW3KH-22" value="" style="shape=partialRectangle;collapsible=0;dropTarget=0;pointerEvents=0;fillColor=none;top=0;left=0;bottom=0;right=0;points=[[0,0.5],[1,0.5]];portConstraint=eastwest;" vertex="1" parent="sjmtIl81N6Vw8AuDW3KH-18">
          <mxGeometry y="60" width="180" height="30" as="geometry" />
        </mxCell>
        <mxCell id="sjmtIl81N6Vw8AuDW3KH-23" value="" style="shape=partialRectangle;connectable=0;fillColor=none;top=0;left=0;bottom=0;right=0;editable=1;overflow=hidden;" vertex="1" parent="sjmtIl81N6Vw8AuDW3KH-22">
          <mxGeometry width="30" height="30" as="geometry">
            <mxRectangle width="30" height="30" as="alternateBounds" />
          </mxGeometry>
        </mxCell>
        <mxCell id="sjmtIl81N6Vw8AuDW3KH-24" value="Row 1" style="shape=partialRectangle;connectable=0;fillColor=none;top=0;left=0;bottom=0;right=0;align=left;spacingLeft=6;overflow=hidden;" vertex="1" parent="sjmtIl81N6Vw8AuDW3KH-22">
          <mxGeometry x="30" width="150" height="30" as="geometry">
            <mxRectangle width="150" height="30" as="alternateBounds" />
          </mxGeometry>
        </mxCell>
        <mxCell id="sjmtIl81N6Vw8AuDW3KH-25" value="" style="shape=partialRectangle;collapsible=0;dropTarget=0;pointerEvents=0;fillColor=none;top=0;left=0;bottom=0;right=0;points=[[0,0.5],[1,0.5]];portConstraint=eastwest;" vertex="1" parent="sjmtIl81N6Vw8AuDW3KH-18">
          <mxGeometry y="90" width="180" height="30" as="geometry" />
        </mxCell>
        <mxCell id="sjmtIl81N6Vw8AuDW3KH-26" value="" style="shape=partialRectangle;connectable=0;fillColor=none;top=0;left=0;bottom=0;right=0;editable=1;overflow=hidden;" vertex="1" parent="sjmtIl81N6Vw8AuDW3KH-25">
          <mxGeometry width="30" height="30" as="geometry">
            <mxRectangle width="30" height="30" as="alternateBounds" />
          </mxGeometry>
        </mxCell>
        <mxCell id="sjmtIl81N6Vw8AuDW3KH-27" value="Row 2" style="shape=partialRectangle;connectable=0;fillColor=none;top=0;left=0;bottom=0;right=0;align=left;spacingLeft=6;overflow=hidden;" vertex="1" parent="sjmtIl81N6Vw8AuDW3KH-25">
          <mxGeometry x="30" width="150" height="30" as="geometry">
            <mxRectangle width="150" height="30" as="alternateBounds" />
          </mxGeometry>
        </mxCell>
        <mxCell id="sjmtIl81N6Vw8AuDW3KH-28" value="" style="shape=partialRectangle;collapsible=0;dropTarget=0;pointerEvents=0;fillColor=none;top=0;left=0;bottom=0;right=0;points=[[0,0.5],[1,0.5]];portConstraint=eastwest;" vertex="1" parent="sjmtIl81N6Vw8AuDW3KH-18">
          <mxGeometry y="120" width="180" height="30" as="geometry" />
        </mxCell>
        <mxCell id="sjmtIl81N6Vw8AuDW3KH-29" value="" style="shape=partialRectangle;connectable=0;fillColor=none;top=0;left=0;bottom=0;right=0;editable=1;overflow=hidden;" vertex="1" parent="sjmtIl81N6Vw8AuDW3KH-28">
          <mxGeometry width="30" height="30" as="geometry">
            <mxRectangle width="30" height="30" as="alternateBounds" />
          </mxGeometry>
        </mxCell>
        <mxCell id="sjmtIl81N6Vw8AuDW3KH-30" value="Row 3" style="shape=partialRectangle;connectable=0;fillColor=none;top=0;left=0;bottom=0;right=0;align=left;spacingLeft=6;overflow=hidden;" vertex="1" parent="sjmtIl81N6Vw8AuDW3KH-28">
          <mxGeometry x="30" width="150" height="30" as="geometry">
            <mxRectangle width="150" height="30" as="alternateBounds" />
          </mxGeometry>
        </mxCell>
        <mxCell id="sjmtIl81N6Vw8AuDW3KH-31" value="Non_Food" style="shape=table;startSize=30;container=1;collapsible=1;childLayout=tableLayout;fixedRows=1;rowLines=0;fontStyle=1;align=center;resizeLast=1;" vertex="1" collapsed="1" parent="1">
          <mxGeometry x="214" y="440" width="200" height="30" as="geometry">
            <mxRectangle x="170" y="360" width="180" height="160" as="alternateBounds" />
          </mxGeometry>
        </mxCell>
        <mxCell id="sjmtIl81N6Vw8AuDW3KH-32" value="" style="shape=partialRectangle;collapsible=0;dropTarget=0;pointerEvents=0;fillColor=none;top=0;left=0;bottom=1;right=0;points=[[0,0.5],[1,0.5]];portConstraint=eastwest;" vertex="1" parent="sjmtIl81N6Vw8AuDW3KH-31">
          <mxGeometry y="30" width="180" height="30" as="geometry" />
        </mxCell>
        <mxCell id="sjmtIl81N6Vw8AuDW3KH-33" value="PK" style="shape=partialRectangle;connectable=0;fillColor=none;top=0;left=0;bottom=0;right=0;fontStyle=1;overflow=hidden;" vertex="1" parent="sjmtIl81N6Vw8AuDW3KH-32">
          <mxGeometry width="30" height="30" as="geometry">
            <mxRectangle width="30" height="30" as="alternateBounds" />
          </mxGeometry>
        </mxCell>
        <mxCell id="sjmtIl81N6Vw8AuDW3KH-34" value="UniqueID" style="shape=partialRectangle;connectable=0;fillColor=none;top=0;left=0;bottom=0;right=0;align=left;spacingLeft=6;fontStyle=5;overflow=hidden;" vertex="1" parent="sjmtIl81N6Vw8AuDW3KH-32">
          <mxGeometry x="30" width="150" height="30" as="geometry">
            <mxRectangle width="150" height="30" as="alternateBounds" />
          </mxGeometry>
        </mxCell>
        <mxCell id="sjmtIl81N6Vw8AuDW3KH-35" value="" style="shape=partialRectangle;collapsible=0;dropTarget=0;pointerEvents=0;fillColor=none;top=0;left=0;bottom=0;right=0;points=[[0,0.5],[1,0.5]];portConstraint=eastwest;" vertex="1" parent="sjmtIl81N6Vw8AuDW3KH-31">
          <mxGeometry y="60" width="180" height="30" as="geometry" />
        </mxCell>
        <mxCell id="sjmtIl81N6Vw8AuDW3KH-36" value="" style="shape=partialRectangle;connectable=0;fillColor=none;top=0;left=0;bottom=0;right=0;editable=1;overflow=hidden;" vertex="1" parent="sjmtIl81N6Vw8AuDW3KH-35">
          <mxGeometry width="30" height="30" as="geometry">
            <mxRectangle width="30" height="30" as="alternateBounds" />
          </mxGeometry>
        </mxCell>
        <mxCell id="sjmtIl81N6Vw8AuDW3KH-37" value="Row 1" style="shape=partialRectangle;connectable=0;fillColor=none;top=0;left=0;bottom=0;right=0;align=left;spacingLeft=6;overflow=hidden;" vertex="1" parent="sjmtIl81N6Vw8AuDW3KH-35">
          <mxGeometry x="30" width="150" height="30" as="geometry">
            <mxRectangle width="150" height="30" as="alternateBounds" />
          </mxGeometry>
        </mxCell>
        <mxCell id="sjmtIl81N6Vw8AuDW3KH-38" value="" style="shape=partialRectangle;collapsible=0;dropTarget=0;pointerEvents=0;fillColor=none;top=0;left=0;bottom=0;right=0;points=[[0,0.5],[1,0.5]];portConstraint=eastwest;" vertex="1" parent="sjmtIl81N6Vw8AuDW3KH-31">
          <mxGeometry y="90" width="180" height="30" as="geometry" />
        </mxCell>
        <mxCell id="sjmtIl81N6Vw8AuDW3KH-39" value="" style="shape=partialRectangle;connectable=0;fillColor=none;top=0;left=0;bottom=0;right=0;editable=1;overflow=hidden;" vertex="1" parent="sjmtIl81N6Vw8AuDW3KH-38">
          <mxGeometry width="30" height="30" as="geometry">
            <mxRectangle width="30" height="30" as="alternateBounds" />
          </mxGeometry>
        </mxCell>
        <mxCell id="sjmtIl81N6Vw8AuDW3KH-40" value="Row 2" style="shape=partialRectangle;connectable=0;fillColor=none;top=0;left=0;bottom=0;right=0;align=left;spacingLeft=6;overflow=hidden;" vertex="1" parent="sjmtIl81N6Vw8AuDW3KH-38">
          <mxGeometry x="30" width="150" height="30" as="geometry">
            <mxRectangle width="150" height="30" as="alternateBounds" />
          </mxGeometry>
        </mxCell>
        <mxCell id="sjmtIl81N6Vw8AuDW3KH-41" value="" style="shape=partialRectangle;collapsible=0;dropTarget=0;pointerEvents=0;fillColor=none;top=0;left=0;bottom=0;right=0;points=[[0,0.5],[1,0.5]];portConstraint=eastwest;" vertex="1" parent="sjmtIl81N6Vw8AuDW3KH-31">
          <mxGeometry y="120" width="180" height="30" as="geometry" />
        </mxCell>
        <mxCell id="sjmtIl81N6Vw8AuDW3KH-42" value="" style="shape=partialRectangle;connectable=0;fillColor=none;top=0;left=0;bottom=0;right=0;editable=1;overflow=hidden;" vertex="1" parent="sjmtIl81N6Vw8AuDW3KH-41">
          <mxGeometry width="30" height="30" as="geometry">
            <mxRectangle width="30" height="30" as="alternateBounds" />
          </mxGeometry>
        </mxCell>
        <mxCell id="sjmtIl81N6Vw8AuDW3KH-43" value="Row 3" style="shape=partialRectangle;connectable=0;fillColor=none;top=0;left=0;bottom=0;right=0;align=left;spacingLeft=6;overflow=hidden;" vertex="1" parent="sjmtIl81N6Vw8AuDW3KH-41">
          <mxGeometry x="30" width="150" height="30" as="geometry">
            <mxRectangle width="150" height="30" as="alternateBounds" />
          </mxGeometry>
        </mxCell>
        <mxCell id="sjmtIl81N6Vw8AuDW3KH-44" value="" style="edgeStyle=none;html=1;endArrow=block;endFill=0;endSize=12;rounded=0;" edge="1" parent="1">
          <mxGeometry relative="1" as="geometry">
            <mxPoint x="-210" y="470" as="targetPoint" />
            <mxPoint x="-210" y="500" as="sourcePoint" />
          </mxGeometry>
        </mxCell>
        <mxCell id="sjmtIl81N6Vw8AuDW3KH-45" value="" style="edgeStyle=none;html=1;endArrow=block;endFill=0;endSize=12;rounded=0;" edge="1" parent="1">
          <mxGeometry relative="1" as="geometry">
            <mxPoint x="-147" y="470" as="targetPoint" />
            <mxPoint x="-147" y="540" as="sourcePoint" />
          </mxGeometry>
        </mxCell>
        <mxCell id="sjmtIl81N6Vw8AuDW3KH-46" value="" style="edgeStyle=none;html=1;endArrow=block;endFill=0;endSize=12;rounded=0;" edge="1" parent="1">
          <mxGeometry relative="1" as="geometry">
            <mxPoint x="-117.42" y="470" as="targetPoint" />
            <mxPoint x="-117" y="500" as="sourcePoint" />
          </mxGeometry>
        </mxCell>
        <mxCell id="sjmtIl81N6Vw8AuDW3KH-48" value="" style="edgeStyle=none;html=1;endArrow=block;endFill=0;endSize=12;rounded=0;" edge="1" parent="1">
          <mxGeometry relative="1" as="geometry">
            <mxPoint x="-78.42" y="470" as="targetPoint" />
            <mxPoint x="-78.42" y="550" as="sourcePoint" />
          </mxGeometry>
        </mxCell>
        <mxCell id="sjmtIl81N6Vw8AuDW3KH-49" value="" style="edgeStyle=none;html=1;endArrow=block;endFill=0;endSize=12;rounded=0;" edge="1" parent="1">
          <mxGeometry relative="1" as="geometry">
            <mxPoint x="-250" y="470" as="targetPoint" />
            <mxPoint x="-250" y="550" as="sourcePoint" />
          </mxGeometry>
        </mxCell>
        <mxCell id="sjmtIl81N6Vw8AuDW3KH-51" value="Dairy_Eggs" style="shape=table;startSize=30;container=1;collapsible=1;childLayout=tableLayout;fixedRows=1;rowLines=0;fontStyle=1;align=center;resizeLast=1;" vertex="1" collapsed="1" parent="1">
          <mxGeometry x="-240" y="500" width="80" height="30" as="geometry">
            <mxRectangle x="-140" y="585" width="180" height="160" as="alternateBounds" />
          </mxGeometry>
        </mxCell>
        <mxCell id="sjmtIl81N6Vw8AuDW3KH-52" value="" style="shape=partialRectangle;collapsible=0;dropTarget=0;pointerEvents=0;fillColor=none;top=0;left=0;bottom=1;right=0;points=[[0,0.5],[1,0.5]];portConstraint=eastwest;" vertex="1" parent="sjmtIl81N6Vw8AuDW3KH-51">
          <mxGeometry y="30" width="180" height="30" as="geometry" />
        </mxCell>
        <mxCell id="sjmtIl81N6Vw8AuDW3KH-53" value="PK" style="shape=partialRectangle;connectable=0;fillColor=none;top=0;left=0;bottom=0;right=0;fontStyle=1;overflow=hidden;" vertex="1" parent="sjmtIl81N6Vw8AuDW3KH-52">
          <mxGeometry width="30" height="30" as="geometry">
            <mxRectangle width="30" height="30" as="alternateBounds" />
          </mxGeometry>
        </mxCell>
        <mxCell id="sjmtIl81N6Vw8AuDW3KH-54" value="UniqueID" style="shape=partialRectangle;connectable=0;fillColor=none;top=0;left=0;bottom=0;right=0;align=left;spacingLeft=6;fontStyle=5;overflow=hidden;" vertex="1" parent="sjmtIl81N6Vw8AuDW3KH-52">
          <mxGeometry x="30" width="150" height="30" as="geometry">
            <mxRectangle width="150" height="30" as="alternateBounds" />
          </mxGeometry>
        </mxCell>
        <mxCell id="sjmtIl81N6Vw8AuDW3KH-55" value="" style="shape=partialRectangle;collapsible=0;dropTarget=0;pointerEvents=0;fillColor=none;top=0;left=0;bottom=0;right=0;points=[[0,0.5],[1,0.5]];portConstraint=eastwest;" vertex="1" parent="sjmtIl81N6Vw8AuDW3KH-51">
          <mxGeometry y="60" width="180" height="30" as="geometry" />
        </mxCell>
        <mxCell id="sjmtIl81N6Vw8AuDW3KH-56" value="" style="shape=partialRectangle;connectable=0;fillColor=none;top=0;left=0;bottom=0;right=0;editable=1;overflow=hidden;" vertex="1" parent="sjmtIl81N6Vw8AuDW3KH-55">
          <mxGeometry width="30" height="30" as="geometry">
            <mxRectangle width="30" height="30" as="alternateBounds" />
          </mxGeometry>
        </mxCell>
        <mxCell id="sjmtIl81N6Vw8AuDW3KH-57" value="Row 1" style="shape=partialRectangle;connectable=0;fillColor=none;top=0;left=0;bottom=0;right=0;align=left;spacingLeft=6;overflow=hidden;" vertex="1" parent="sjmtIl81N6Vw8AuDW3KH-55">
          <mxGeometry x="30" width="150" height="30" as="geometry">
            <mxRectangle width="150" height="30" as="alternateBounds" />
          </mxGeometry>
        </mxCell>
        <mxCell id="sjmtIl81N6Vw8AuDW3KH-58" value="" style="shape=partialRectangle;collapsible=0;dropTarget=0;pointerEvents=0;fillColor=none;top=0;left=0;bottom=0;right=0;points=[[0,0.5],[1,0.5]];portConstraint=eastwest;" vertex="1" parent="sjmtIl81N6Vw8AuDW3KH-51">
          <mxGeometry y="90" width="180" height="30" as="geometry" />
        </mxCell>
        <mxCell id="sjmtIl81N6Vw8AuDW3KH-59" value="" style="shape=partialRectangle;connectable=0;fillColor=none;top=0;left=0;bottom=0;right=0;editable=1;overflow=hidden;" vertex="1" parent="sjmtIl81N6Vw8AuDW3KH-58">
          <mxGeometry width="30" height="30" as="geometry">
            <mxRectangle width="30" height="30" as="alternateBounds" />
          </mxGeometry>
        </mxCell>
        <mxCell id="sjmtIl81N6Vw8AuDW3KH-60" value="Row 2" style="shape=partialRectangle;connectable=0;fillColor=none;top=0;left=0;bottom=0;right=0;align=left;spacingLeft=6;overflow=hidden;" vertex="1" parent="sjmtIl81N6Vw8AuDW3KH-58">
          <mxGeometry x="30" width="150" height="30" as="geometry">
            <mxRectangle width="150" height="30" as="alternateBounds" />
          </mxGeometry>
        </mxCell>
        <mxCell id="sjmtIl81N6Vw8AuDW3KH-61" value="" style="shape=partialRectangle;collapsible=0;dropTarget=0;pointerEvents=0;fillColor=none;top=0;left=0;bottom=0;right=0;points=[[0,0.5],[1,0.5]];portConstraint=eastwest;" vertex="1" parent="sjmtIl81N6Vw8AuDW3KH-51">
          <mxGeometry y="120" width="180" height="30" as="geometry" />
        </mxCell>
        <mxCell id="sjmtIl81N6Vw8AuDW3KH-62" value="" style="shape=partialRectangle;connectable=0;fillColor=none;top=0;left=0;bottom=0;right=0;editable=1;overflow=hidden;" vertex="1" parent="sjmtIl81N6Vw8AuDW3KH-61">
          <mxGeometry width="30" height="30" as="geometry">
            <mxRectangle width="30" height="30" as="alternateBounds" />
          </mxGeometry>
        </mxCell>
        <mxCell id="sjmtIl81N6Vw8AuDW3KH-63" value="Row 3" style="shape=partialRectangle;connectable=0;fillColor=none;top=0;left=0;bottom=0;right=0;align=left;spacingLeft=6;overflow=hidden;" vertex="1" parent="sjmtIl81N6Vw8AuDW3KH-61">
          <mxGeometry x="30" width="150" height="30" as="geometry">
            <mxRectangle width="150" height="30" as="alternateBounds" />
          </mxGeometry>
        </mxCell>
        <mxCell id="sjmtIl81N6Vw8AuDW3KH-64" value="Snacks" style="shape=table;startSize=30;container=1;collapsible=1;childLayout=tableLayout;fixedRows=1;rowLines=0;fontStyle=1;align=center;resizeLast=1;" vertex="1" collapsed="1" parent="1">
          <mxGeometry x="-197" y="540" width="70" height="30" as="geometry">
            <mxRectangle x="50" y="610" width="180" height="160" as="alternateBounds" />
          </mxGeometry>
        </mxCell>
        <mxCell id="sjmtIl81N6Vw8AuDW3KH-65" value="" style="shape=partialRectangle;collapsible=0;dropTarget=0;pointerEvents=0;fillColor=none;top=0;left=0;bottom=1;right=0;points=[[0,0.5],[1,0.5]];portConstraint=eastwest;" vertex="1" parent="sjmtIl81N6Vw8AuDW3KH-64">
          <mxGeometry y="30" width="180" height="30" as="geometry" />
        </mxCell>
        <mxCell id="sjmtIl81N6Vw8AuDW3KH-66" value="PK" style="shape=partialRectangle;connectable=0;fillColor=none;top=0;left=0;bottom=0;right=0;fontStyle=1;overflow=hidden;" vertex="1" parent="sjmtIl81N6Vw8AuDW3KH-65">
          <mxGeometry width="30" height="30" as="geometry">
            <mxRectangle width="30" height="30" as="alternateBounds" />
          </mxGeometry>
        </mxCell>
        <mxCell id="sjmtIl81N6Vw8AuDW3KH-67" value="UniqueID" style="shape=partialRectangle;connectable=0;fillColor=none;top=0;left=0;bottom=0;right=0;align=left;spacingLeft=6;fontStyle=5;overflow=hidden;" vertex="1" parent="sjmtIl81N6Vw8AuDW3KH-65">
          <mxGeometry x="30" width="150" height="30" as="geometry">
            <mxRectangle width="150" height="30" as="alternateBounds" />
          </mxGeometry>
        </mxCell>
        <mxCell id="sjmtIl81N6Vw8AuDW3KH-68" value="" style="shape=partialRectangle;collapsible=0;dropTarget=0;pointerEvents=0;fillColor=none;top=0;left=0;bottom=0;right=0;points=[[0,0.5],[1,0.5]];portConstraint=eastwest;" vertex="1" parent="sjmtIl81N6Vw8AuDW3KH-64">
          <mxGeometry y="60" width="180" height="30" as="geometry" />
        </mxCell>
        <mxCell id="sjmtIl81N6Vw8AuDW3KH-69" value="" style="shape=partialRectangle;connectable=0;fillColor=none;top=0;left=0;bottom=0;right=0;editable=1;overflow=hidden;" vertex="1" parent="sjmtIl81N6Vw8AuDW3KH-68">
          <mxGeometry width="30" height="30" as="geometry">
            <mxRectangle width="30" height="30" as="alternateBounds" />
          </mxGeometry>
        </mxCell>
        <mxCell id="sjmtIl81N6Vw8AuDW3KH-70" value="Row 1" style="shape=partialRectangle;connectable=0;fillColor=none;top=0;left=0;bottom=0;right=0;align=left;spacingLeft=6;overflow=hidden;" vertex="1" parent="sjmtIl81N6Vw8AuDW3KH-68">
          <mxGeometry x="30" width="150" height="30" as="geometry">
            <mxRectangle width="150" height="30" as="alternateBounds" />
          </mxGeometry>
        </mxCell>
        <mxCell id="sjmtIl81N6Vw8AuDW3KH-71" value="" style="shape=partialRectangle;collapsible=0;dropTarget=0;pointerEvents=0;fillColor=none;top=0;left=0;bottom=0;right=0;points=[[0,0.5],[1,0.5]];portConstraint=eastwest;" vertex="1" parent="sjmtIl81N6Vw8AuDW3KH-64">
          <mxGeometry y="90" width="180" height="30" as="geometry" />
        </mxCell>
        <mxCell id="sjmtIl81N6Vw8AuDW3KH-72" value="" style="shape=partialRectangle;connectable=0;fillColor=none;top=0;left=0;bottom=0;right=0;editable=1;overflow=hidden;" vertex="1" parent="sjmtIl81N6Vw8AuDW3KH-71">
          <mxGeometry width="30" height="30" as="geometry">
            <mxRectangle width="30" height="30" as="alternateBounds" />
          </mxGeometry>
        </mxCell>
        <mxCell id="sjmtIl81N6Vw8AuDW3KH-73" value="Row 2" style="shape=partialRectangle;connectable=0;fillColor=none;top=0;left=0;bottom=0;right=0;align=left;spacingLeft=6;overflow=hidden;" vertex="1" parent="sjmtIl81N6Vw8AuDW3KH-71">
          <mxGeometry x="30" width="150" height="30" as="geometry">
            <mxRectangle width="150" height="30" as="alternateBounds" />
          </mxGeometry>
        </mxCell>
        <mxCell id="sjmtIl81N6Vw8AuDW3KH-74" value="" style="shape=partialRectangle;collapsible=0;dropTarget=0;pointerEvents=0;fillColor=none;top=0;left=0;bottom=0;right=0;points=[[0,0.5],[1,0.5]];portConstraint=eastwest;" vertex="1" parent="sjmtIl81N6Vw8AuDW3KH-64">
          <mxGeometry y="120" width="180" height="30" as="geometry" />
        </mxCell>
        <mxCell id="sjmtIl81N6Vw8AuDW3KH-75" value="" style="shape=partialRectangle;connectable=0;fillColor=none;top=0;left=0;bottom=0;right=0;editable=1;overflow=hidden;" vertex="1" parent="sjmtIl81N6Vw8AuDW3KH-74">
          <mxGeometry width="30" height="30" as="geometry">
            <mxRectangle width="30" height="30" as="alternateBounds" />
          </mxGeometry>
        </mxCell>
        <mxCell id="sjmtIl81N6Vw8AuDW3KH-76" value="Row 3" style="shape=partialRectangle;connectable=0;fillColor=none;top=0;left=0;bottom=0;right=0;align=left;spacingLeft=6;overflow=hidden;" vertex="1" parent="sjmtIl81N6Vw8AuDW3KH-74">
          <mxGeometry x="30" width="150" height="30" as="geometry">
            <mxRectangle width="150" height="30" as="alternateBounds" />
          </mxGeometry>
        </mxCell>
        <mxCell id="sjmtIl81N6Vw8AuDW3KH-77" value="Beverages" style="shape=table;startSize=30;container=1;collapsible=1;childLayout=tableLayout;fixedRows=1;rowLines=0;fontStyle=1;align=center;resizeLast=1;" vertex="1" collapsed="1" parent="1">
          <mxGeometry x="-290" y="550" width="80" height="30" as="geometry">
            <mxRectangle x="-290" y="550" width="180" height="160" as="alternateBounds" />
          </mxGeometry>
        </mxCell>
        <mxCell id="sjmtIl81N6Vw8AuDW3KH-78" value="" style="shape=partialRectangle;collapsible=0;dropTarget=0;pointerEvents=0;fillColor=none;top=0;left=0;bottom=1;right=0;points=[[0,0.5],[1,0.5]];portConstraint=eastwest;" vertex="1" parent="sjmtIl81N6Vw8AuDW3KH-77">
          <mxGeometry y="30" width="180" height="30" as="geometry" />
        </mxCell>
        <mxCell id="sjmtIl81N6Vw8AuDW3KH-79" value="PK" style="shape=partialRectangle;connectable=0;fillColor=none;top=0;left=0;bottom=0;right=0;fontStyle=1;overflow=hidden;" vertex="1" parent="sjmtIl81N6Vw8AuDW3KH-78">
          <mxGeometry width="30" height="30" as="geometry">
            <mxRectangle width="30" height="30" as="alternateBounds" />
          </mxGeometry>
        </mxCell>
        <mxCell id="sjmtIl81N6Vw8AuDW3KH-80" value="UniqueID" style="shape=partialRectangle;connectable=0;fillColor=none;top=0;left=0;bottom=0;right=0;align=left;spacingLeft=6;fontStyle=5;overflow=hidden;" vertex="1" parent="sjmtIl81N6Vw8AuDW3KH-78">
          <mxGeometry x="30" width="150" height="30" as="geometry">
            <mxRectangle width="150" height="30" as="alternateBounds" />
          </mxGeometry>
        </mxCell>
        <mxCell id="sjmtIl81N6Vw8AuDW3KH-81" value="" style="shape=partialRectangle;collapsible=0;dropTarget=0;pointerEvents=0;fillColor=none;top=0;left=0;bottom=0;right=0;points=[[0,0.5],[1,0.5]];portConstraint=eastwest;" vertex="1" parent="sjmtIl81N6Vw8AuDW3KH-77">
          <mxGeometry y="60" width="180" height="30" as="geometry" />
        </mxCell>
        <mxCell id="sjmtIl81N6Vw8AuDW3KH-82" value="" style="shape=partialRectangle;connectable=0;fillColor=none;top=0;left=0;bottom=0;right=0;editable=1;overflow=hidden;" vertex="1" parent="sjmtIl81N6Vw8AuDW3KH-81">
          <mxGeometry width="30" height="30" as="geometry">
            <mxRectangle width="30" height="30" as="alternateBounds" />
          </mxGeometry>
        </mxCell>
        <mxCell id="sjmtIl81N6Vw8AuDW3KH-83" value="Row 1" style="shape=partialRectangle;connectable=0;fillColor=none;top=0;left=0;bottom=0;right=0;align=left;spacingLeft=6;overflow=hidden;" vertex="1" parent="sjmtIl81N6Vw8AuDW3KH-81">
          <mxGeometry x="30" width="150" height="30" as="geometry">
            <mxRectangle width="150" height="30" as="alternateBounds" />
          </mxGeometry>
        </mxCell>
        <mxCell id="sjmtIl81N6Vw8AuDW3KH-84" value="" style="shape=partialRectangle;collapsible=0;dropTarget=0;pointerEvents=0;fillColor=none;top=0;left=0;bottom=0;right=0;points=[[0,0.5],[1,0.5]];portConstraint=eastwest;" vertex="1" parent="sjmtIl81N6Vw8AuDW3KH-77">
          <mxGeometry y="90" width="180" height="30" as="geometry" />
        </mxCell>
        <mxCell id="sjmtIl81N6Vw8AuDW3KH-85" value="" style="shape=partialRectangle;connectable=0;fillColor=none;top=0;left=0;bottom=0;right=0;editable=1;overflow=hidden;" vertex="1" parent="sjmtIl81N6Vw8AuDW3KH-84">
          <mxGeometry width="30" height="30" as="geometry">
            <mxRectangle width="30" height="30" as="alternateBounds" />
          </mxGeometry>
        </mxCell>
        <mxCell id="sjmtIl81N6Vw8AuDW3KH-86" value="Row 2" style="shape=partialRectangle;connectable=0;fillColor=none;top=0;left=0;bottom=0;right=0;align=left;spacingLeft=6;overflow=hidden;" vertex="1" parent="sjmtIl81N6Vw8AuDW3KH-84">
          <mxGeometry x="30" width="150" height="30" as="geometry">
            <mxRectangle width="150" height="30" as="alternateBounds" />
          </mxGeometry>
        </mxCell>
        <mxCell id="sjmtIl81N6Vw8AuDW3KH-87" value="" style="shape=partialRectangle;collapsible=0;dropTarget=0;pointerEvents=0;fillColor=none;top=0;left=0;bottom=0;right=0;points=[[0,0.5],[1,0.5]];portConstraint=eastwest;" vertex="1" parent="sjmtIl81N6Vw8AuDW3KH-77">
          <mxGeometry y="120" width="180" height="30" as="geometry" />
        </mxCell>
        <mxCell id="sjmtIl81N6Vw8AuDW3KH-88" value="" style="shape=partialRectangle;connectable=0;fillColor=none;top=0;left=0;bottom=0;right=0;editable=1;overflow=hidden;" vertex="1" parent="sjmtIl81N6Vw8AuDW3KH-87">
          <mxGeometry width="30" height="30" as="geometry">
            <mxRectangle width="30" height="30" as="alternateBounds" />
          </mxGeometry>
        </mxCell>
        <mxCell id="sjmtIl81N6Vw8AuDW3KH-89" value="Row 3" style="shape=partialRectangle;connectable=0;fillColor=none;top=0;left=0;bottom=0;right=0;align=left;spacingLeft=6;overflow=hidden;" vertex="1" parent="sjmtIl81N6Vw8AuDW3KH-87">
          <mxGeometry x="30" width="150" height="30" as="geometry">
            <mxRectangle width="150" height="30" as="alternateBounds" />
          </mxGeometry>
        </mxCell>
        <mxCell id="sjmtIl81N6Vw8AuDW3KH-91" value="Meat_Poultry" style="shape=table;startSize=30;container=1;collapsible=1;childLayout=tableLayout;fixedRows=1;rowLines=0;fontStyle=1;align=center;resizeLast=1;" vertex="1" collapsed="1" parent="1">
          <mxGeometry x="-120" y="540" width="84" height="30" as="geometry">
            <mxRectangle x="470" y="570" width="180" height="160" as="alternateBounds" />
          </mxGeometry>
        </mxCell>
        <mxCell id="sjmtIl81N6Vw8AuDW3KH-92" value="" style="shape=partialRectangle;collapsible=0;dropTarget=0;pointerEvents=0;fillColor=none;top=0;left=0;bottom=1;right=0;points=[[0,0.5],[1,0.5]];portConstraint=eastwest;" vertex="1" parent="sjmtIl81N6Vw8AuDW3KH-91">
          <mxGeometry y="30" width="180" height="30" as="geometry" />
        </mxCell>
        <mxCell id="sjmtIl81N6Vw8AuDW3KH-93" value="PK" style="shape=partialRectangle;connectable=0;fillColor=none;top=0;left=0;bottom=0;right=0;fontStyle=1;overflow=hidden;" vertex="1" parent="sjmtIl81N6Vw8AuDW3KH-92">
          <mxGeometry width="30" height="30" as="geometry">
            <mxRectangle width="30" height="30" as="alternateBounds" />
          </mxGeometry>
        </mxCell>
        <mxCell id="sjmtIl81N6Vw8AuDW3KH-94" value="UniqueID" style="shape=partialRectangle;connectable=0;fillColor=none;top=0;left=0;bottom=0;right=0;align=left;spacingLeft=6;fontStyle=5;overflow=hidden;" vertex="1" parent="sjmtIl81N6Vw8AuDW3KH-92">
          <mxGeometry x="30" width="150" height="30" as="geometry">
            <mxRectangle width="150" height="30" as="alternateBounds" />
          </mxGeometry>
        </mxCell>
        <mxCell id="sjmtIl81N6Vw8AuDW3KH-95" value="" style="shape=partialRectangle;collapsible=0;dropTarget=0;pointerEvents=0;fillColor=none;top=0;left=0;bottom=0;right=0;points=[[0,0.5],[1,0.5]];portConstraint=eastwest;" vertex="1" parent="sjmtIl81N6Vw8AuDW3KH-91">
          <mxGeometry y="60" width="180" height="30" as="geometry" />
        </mxCell>
        <mxCell id="sjmtIl81N6Vw8AuDW3KH-96" value="" style="shape=partialRectangle;connectable=0;fillColor=none;top=0;left=0;bottom=0;right=0;editable=1;overflow=hidden;" vertex="1" parent="sjmtIl81N6Vw8AuDW3KH-95">
          <mxGeometry width="30" height="30" as="geometry">
            <mxRectangle width="30" height="30" as="alternateBounds" />
          </mxGeometry>
        </mxCell>
        <mxCell id="sjmtIl81N6Vw8AuDW3KH-97" value="Row 1" style="shape=partialRectangle;connectable=0;fillColor=none;top=0;left=0;bottom=0;right=0;align=left;spacingLeft=6;overflow=hidden;" vertex="1" parent="sjmtIl81N6Vw8AuDW3KH-95">
          <mxGeometry x="30" width="150" height="30" as="geometry">
            <mxRectangle width="150" height="30" as="alternateBounds" />
          </mxGeometry>
        </mxCell>
        <mxCell id="sjmtIl81N6Vw8AuDW3KH-98" value="" style="shape=partialRectangle;collapsible=0;dropTarget=0;pointerEvents=0;fillColor=none;top=0;left=0;bottom=0;right=0;points=[[0,0.5],[1,0.5]];portConstraint=eastwest;" vertex="1" parent="sjmtIl81N6Vw8AuDW3KH-91">
          <mxGeometry y="90" width="180" height="30" as="geometry" />
        </mxCell>
        <mxCell id="sjmtIl81N6Vw8AuDW3KH-99" value="" style="shape=partialRectangle;connectable=0;fillColor=none;top=0;left=0;bottom=0;right=0;editable=1;overflow=hidden;" vertex="1" parent="sjmtIl81N6Vw8AuDW3KH-98">
          <mxGeometry width="30" height="30" as="geometry">
            <mxRectangle width="30" height="30" as="alternateBounds" />
          </mxGeometry>
        </mxCell>
        <mxCell id="sjmtIl81N6Vw8AuDW3KH-100" value="Row 2" style="shape=partialRectangle;connectable=0;fillColor=none;top=0;left=0;bottom=0;right=0;align=left;spacingLeft=6;overflow=hidden;" vertex="1" parent="sjmtIl81N6Vw8AuDW3KH-98">
          <mxGeometry x="30" width="150" height="30" as="geometry">
            <mxRectangle width="150" height="30" as="alternateBounds" />
          </mxGeometry>
        </mxCell>
        <mxCell id="sjmtIl81N6Vw8AuDW3KH-101" value="" style="shape=partialRectangle;collapsible=0;dropTarget=0;pointerEvents=0;fillColor=none;top=0;left=0;bottom=0;right=0;points=[[0,0.5],[1,0.5]];portConstraint=eastwest;" vertex="1" parent="sjmtIl81N6Vw8AuDW3KH-91">
          <mxGeometry y="120" width="180" height="30" as="geometry" />
        </mxCell>
        <mxCell id="sjmtIl81N6Vw8AuDW3KH-102" value="" style="shape=partialRectangle;connectable=0;fillColor=none;top=0;left=0;bottom=0;right=0;editable=1;overflow=hidden;" vertex="1" parent="sjmtIl81N6Vw8AuDW3KH-101">
          <mxGeometry width="30" height="30" as="geometry">
            <mxRectangle width="30" height="30" as="alternateBounds" />
          </mxGeometry>
        </mxCell>
        <mxCell id="sjmtIl81N6Vw8AuDW3KH-103" value="Row 3" style="shape=partialRectangle;connectable=0;fillColor=none;top=0;left=0;bottom=0;right=0;align=left;spacingLeft=6;overflow=hidden;" vertex="1" parent="sjmtIl81N6Vw8AuDW3KH-101">
          <mxGeometry x="30" width="150" height="30" as="geometry">
            <mxRectangle width="150" height="30" as="alternateBounds" />
          </mxGeometry>
        </mxCell>
        <mxCell id="sjmtIl81N6Vw8AuDW3KH-104" value="Fish" style="shape=table;startSize=30;container=1;collapsible=1;childLayout=tableLayout;fixedRows=1;rowLines=0;fontStyle=1;align=center;resizeLast=1;" vertex="1" collapsed="1" parent="1">
          <mxGeometry x="-140" y="500" width="60" height="30" as="geometry">
            <mxRectangle x="215" y="450" width="180" height="160" as="alternateBounds" />
          </mxGeometry>
        </mxCell>
        <mxCell id="sjmtIl81N6Vw8AuDW3KH-105" value="" style="shape=partialRectangle;collapsible=0;dropTarget=0;pointerEvents=0;fillColor=none;top=0;left=0;bottom=1;right=0;points=[[0,0.5],[1,0.5]];portConstraint=eastwest;" vertex="1" parent="sjmtIl81N6Vw8AuDW3KH-104">
          <mxGeometry y="30" width="180" height="30" as="geometry" />
        </mxCell>
        <mxCell id="sjmtIl81N6Vw8AuDW3KH-106" value="PK" style="shape=partialRectangle;connectable=0;fillColor=none;top=0;left=0;bottom=0;right=0;fontStyle=1;overflow=hidden;" vertex="1" parent="sjmtIl81N6Vw8AuDW3KH-105">
          <mxGeometry width="30" height="30" as="geometry">
            <mxRectangle width="30" height="30" as="alternateBounds" />
          </mxGeometry>
        </mxCell>
        <mxCell id="sjmtIl81N6Vw8AuDW3KH-107" value="UniqueID" style="shape=partialRectangle;connectable=0;fillColor=none;top=0;left=0;bottom=0;right=0;align=left;spacingLeft=6;fontStyle=5;overflow=hidden;" vertex="1" parent="sjmtIl81N6Vw8AuDW3KH-105">
          <mxGeometry x="30" width="150" height="30" as="geometry">
            <mxRectangle width="150" height="30" as="alternateBounds" />
          </mxGeometry>
        </mxCell>
        <mxCell id="sjmtIl81N6Vw8AuDW3KH-108" value="" style="shape=partialRectangle;collapsible=0;dropTarget=0;pointerEvents=0;fillColor=none;top=0;left=0;bottom=0;right=0;points=[[0,0.5],[1,0.5]];portConstraint=eastwest;" vertex="1" parent="sjmtIl81N6Vw8AuDW3KH-104">
          <mxGeometry y="60" width="180" height="30" as="geometry" />
        </mxCell>
        <mxCell id="sjmtIl81N6Vw8AuDW3KH-109" value="" style="shape=partialRectangle;connectable=0;fillColor=none;top=0;left=0;bottom=0;right=0;editable=1;overflow=hidden;" vertex="1" parent="sjmtIl81N6Vw8AuDW3KH-108">
          <mxGeometry width="30" height="30" as="geometry">
            <mxRectangle width="30" height="30" as="alternateBounds" />
          </mxGeometry>
        </mxCell>
        <mxCell id="sjmtIl81N6Vw8AuDW3KH-110" value="Row 1" style="shape=partialRectangle;connectable=0;fillColor=none;top=0;left=0;bottom=0;right=0;align=left;spacingLeft=6;overflow=hidden;" vertex="1" parent="sjmtIl81N6Vw8AuDW3KH-108">
          <mxGeometry x="30" width="150" height="30" as="geometry">
            <mxRectangle width="150" height="30" as="alternateBounds" />
          </mxGeometry>
        </mxCell>
        <mxCell id="sjmtIl81N6Vw8AuDW3KH-111" value="" style="shape=partialRectangle;collapsible=0;dropTarget=0;pointerEvents=0;fillColor=none;top=0;left=0;bottom=0;right=0;points=[[0,0.5],[1,0.5]];portConstraint=eastwest;" vertex="1" parent="sjmtIl81N6Vw8AuDW3KH-104">
          <mxGeometry y="90" width="180" height="30" as="geometry" />
        </mxCell>
        <mxCell id="sjmtIl81N6Vw8AuDW3KH-112" value="" style="shape=partialRectangle;connectable=0;fillColor=none;top=0;left=0;bottom=0;right=0;editable=1;overflow=hidden;" vertex="1" parent="sjmtIl81N6Vw8AuDW3KH-111">
          <mxGeometry width="30" height="30" as="geometry">
            <mxRectangle width="30" height="30" as="alternateBounds" />
          </mxGeometry>
        </mxCell>
        <mxCell id="sjmtIl81N6Vw8AuDW3KH-113" value="Row 2" style="shape=partialRectangle;connectable=0;fillColor=none;top=0;left=0;bottom=0;right=0;align=left;spacingLeft=6;overflow=hidden;" vertex="1" parent="sjmtIl81N6Vw8AuDW3KH-111">
          <mxGeometry x="30" width="150" height="30" as="geometry">
            <mxRectangle width="150" height="30" as="alternateBounds" />
          </mxGeometry>
        </mxCell>
        <mxCell id="sjmtIl81N6Vw8AuDW3KH-114" value="" style="shape=partialRectangle;collapsible=0;dropTarget=0;pointerEvents=0;fillColor=none;top=0;left=0;bottom=0;right=0;points=[[0,0.5],[1,0.5]];portConstraint=eastwest;" vertex="1" parent="sjmtIl81N6Vw8AuDW3KH-104">
          <mxGeometry y="120" width="180" height="30" as="geometry" />
        </mxCell>
        <mxCell id="sjmtIl81N6Vw8AuDW3KH-115" value="" style="shape=partialRectangle;connectable=0;fillColor=none;top=0;left=0;bottom=0;right=0;editable=1;overflow=hidden;" vertex="1" parent="sjmtIl81N6Vw8AuDW3KH-114">
          <mxGeometry width="30" height="30" as="geometry">
            <mxRectangle width="30" height="30" as="alternateBounds" />
          </mxGeometry>
        </mxCell>
        <mxCell id="sjmtIl81N6Vw8AuDW3KH-116" value="Row 3" style="shape=partialRectangle;connectable=0;fillColor=none;top=0;left=0;bottom=0;right=0;align=left;spacingLeft=6;overflow=hidden;" vertex="1" parent="sjmtIl81N6Vw8AuDW3KH-114">
          <mxGeometry x="30" width="150" height="30" as="geometry">
            <mxRectangle width="150" height="30" as="alternateBounds" />
          </mxGeometry>
        </mxCell>
        <mxCell id="sjmtIl81N6Vw8AuDW3KH-119" value="" style="edgeStyle=none;html=1;endArrow=block;endFill=0;endSize=12;rounded=0;" edge="1" parent="1">
          <mxGeometry relative="1" as="geometry">
            <mxPoint x="-290" y="470" as="targetPoint" />
            <mxPoint x="-290" y="510" as="sourcePoint" />
          </mxGeometry>
        </mxCell>
        <mxCell id="sjmtIl81N6Vw8AuDW3KH-120" value="Frozen_Food" style="shape=table;startSize=30;container=1;collapsible=1;childLayout=tableLayout;fixedRows=1;rowLines=0;fontStyle=1;align=center;resizeLast=1;" vertex="1" collapsed="1" parent="1">
          <mxGeometry x="-340" y="510" width="80" height="30" as="geometry">
            <mxRectangle x="-320" y="630" width="180" height="160" as="alternateBounds" />
          </mxGeometry>
        </mxCell>
        <mxCell id="sjmtIl81N6Vw8AuDW3KH-121" value="" style="shape=partialRectangle;collapsible=0;dropTarget=0;pointerEvents=0;fillColor=none;top=0;left=0;bottom=1;right=0;points=[[0,0.5],[1,0.5]];portConstraint=eastwest;" vertex="1" parent="sjmtIl81N6Vw8AuDW3KH-120">
          <mxGeometry y="30" width="180" height="30" as="geometry" />
        </mxCell>
        <mxCell id="sjmtIl81N6Vw8AuDW3KH-122" value="PK" style="shape=partialRectangle;connectable=0;fillColor=none;top=0;left=0;bottom=0;right=0;fontStyle=1;overflow=hidden;" vertex="1" parent="sjmtIl81N6Vw8AuDW3KH-121">
          <mxGeometry width="30" height="30" as="geometry">
            <mxRectangle width="30" height="30" as="alternateBounds" />
          </mxGeometry>
        </mxCell>
        <mxCell id="sjmtIl81N6Vw8AuDW3KH-123" value="UniqueID" style="shape=partialRectangle;connectable=0;fillColor=none;top=0;left=0;bottom=0;right=0;align=left;spacingLeft=6;fontStyle=5;overflow=hidden;" vertex="1" parent="sjmtIl81N6Vw8AuDW3KH-121">
          <mxGeometry x="30" width="150" height="30" as="geometry">
            <mxRectangle width="150" height="30" as="alternateBounds" />
          </mxGeometry>
        </mxCell>
        <mxCell id="sjmtIl81N6Vw8AuDW3KH-124" value="" style="shape=partialRectangle;collapsible=0;dropTarget=0;pointerEvents=0;fillColor=none;top=0;left=0;bottom=0;right=0;points=[[0,0.5],[1,0.5]];portConstraint=eastwest;" vertex="1" parent="sjmtIl81N6Vw8AuDW3KH-120">
          <mxGeometry y="60" width="180" height="30" as="geometry" />
        </mxCell>
        <mxCell id="sjmtIl81N6Vw8AuDW3KH-125" value="" style="shape=partialRectangle;connectable=0;fillColor=none;top=0;left=0;bottom=0;right=0;editable=1;overflow=hidden;" vertex="1" parent="sjmtIl81N6Vw8AuDW3KH-124">
          <mxGeometry width="30" height="30" as="geometry">
            <mxRectangle width="30" height="30" as="alternateBounds" />
          </mxGeometry>
        </mxCell>
        <mxCell id="sjmtIl81N6Vw8AuDW3KH-126" value="Row 1" style="shape=partialRectangle;connectable=0;fillColor=none;top=0;left=0;bottom=0;right=0;align=left;spacingLeft=6;overflow=hidden;" vertex="1" parent="sjmtIl81N6Vw8AuDW3KH-124">
          <mxGeometry x="30" width="150" height="30" as="geometry">
            <mxRectangle width="150" height="30" as="alternateBounds" />
          </mxGeometry>
        </mxCell>
        <mxCell id="sjmtIl81N6Vw8AuDW3KH-127" value="" style="shape=partialRectangle;collapsible=0;dropTarget=0;pointerEvents=0;fillColor=none;top=0;left=0;bottom=0;right=0;points=[[0,0.5],[1,0.5]];portConstraint=eastwest;" vertex="1" parent="sjmtIl81N6Vw8AuDW3KH-120">
          <mxGeometry y="90" width="180" height="30" as="geometry" />
        </mxCell>
        <mxCell id="sjmtIl81N6Vw8AuDW3KH-128" value="" style="shape=partialRectangle;connectable=0;fillColor=none;top=0;left=0;bottom=0;right=0;editable=1;overflow=hidden;" vertex="1" parent="sjmtIl81N6Vw8AuDW3KH-127">
          <mxGeometry width="30" height="30" as="geometry">
            <mxRectangle width="30" height="30" as="alternateBounds" />
          </mxGeometry>
        </mxCell>
        <mxCell id="sjmtIl81N6Vw8AuDW3KH-129" value="Row 2" style="shape=partialRectangle;connectable=0;fillColor=none;top=0;left=0;bottom=0;right=0;align=left;spacingLeft=6;overflow=hidden;" vertex="1" parent="sjmtIl81N6Vw8AuDW3KH-127">
          <mxGeometry x="30" width="150" height="30" as="geometry">
            <mxRectangle width="150" height="30" as="alternateBounds" />
          </mxGeometry>
        </mxCell>
        <mxCell id="sjmtIl81N6Vw8AuDW3KH-130" value="" style="shape=partialRectangle;collapsible=0;dropTarget=0;pointerEvents=0;fillColor=none;top=0;left=0;bottom=0;right=0;points=[[0,0.5],[1,0.5]];portConstraint=eastwest;" vertex="1" parent="sjmtIl81N6Vw8AuDW3KH-120">
          <mxGeometry y="120" width="180" height="30" as="geometry" />
        </mxCell>
        <mxCell id="sjmtIl81N6Vw8AuDW3KH-131" value="" style="shape=partialRectangle;connectable=0;fillColor=none;top=0;left=0;bottom=0;right=0;editable=1;overflow=hidden;" vertex="1" parent="sjmtIl81N6Vw8AuDW3KH-130">
          <mxGeometry width="30" height="30" as="geometry">
            <mxRectangle width="30" height="30" as="alternateBounds" />
          </mxGeometry>
        </mxCell>
        <mxCell id="sjmtIl81N6Vw8AuDW3KH-132" value="Row 3" style="shape=partialRectangle;connectable=0;fillColor=none;top=0;left=0;bottom=0;right=0;align=left;spacingLeft=6;overflow=hidden;" vertex="1" parent="sjmtIl81N6Vw8AuDW3KH-130">
          <mxGeometry x="30" width="150" height="30" as="geometry">
            <mxRectangle width="150" height="30" as="alternateBounds" />
          </mxGeometry>
        </mxCell>
        <mxCell id="sjmtIl81N6Vw8AuDW3KH-133" value="" style="edgeStyle=none;html=1;endArrow=block;endFill=0;endSize=12;rounded=0;" edge="1" parent="1">
          <mxGeometry relative="1" as="geometry">
            <mxPoint x="-50" y="471" as="targetPoint" />
            <mxPoint x="-50" y="508" as="sourcePoint" />
          </mxGeometry>
        </mxCell>
        <mxCell id="sjmtIl81N6Vw8AuDW3KH-134" value="Baked_Food" style="shape=table;startSize=30;container=1;collapsible=1;childLayout=tableLayout;fixedRows=1;rowLines=0;fontStyle=1;align=center;resizeLast=1;" vertex="1" collapsed="1" parent="1">
          <mxGeometry x="-74" y="500" width="74" height="30" as="geometry">
            <mxRectangle x="-130" y="390" width="180" height="160" as="alternateBounds" />
          </mxGeometry>
        </mxCell>
        <mxCell id="sjmtIl81N6Vw8AuDW3KH-135" value="" style="shape=partialRectangle;collapsible=0;dropTarget=0;pointerEvents=0;fillColor=none;top=0;left=0;bottom=1;right=0;points=[[0,0.5],[1,0.5]];portConstraint=eastwest;" vertex="1" parent="sjmtIl81N6Vw8AuDW3KH-134">
          <mxGeometry y="30" width="180" height="30" as="geometry" />
        </mxCell>
        <mxCell id="sjmtIl81N6Vw8AuDW3KH-136" value="PK" style="shape=partialRectangle;connectable=0;fillColor=none;top=0;left=0;bottom=0;right=0;fontStyle=1;overflow=hidden;" vertex="1" parent="sjmtIl81N6Vw8AuDW3KH-135">
          <mxGeometry width="30" height="30" as="geometry">
            <mxRectangle width="30" height="30" as="alternateBounds" />
          </mxGeometry>
        </mxCell>
        <mxCell id="sjmtIl81N6Vw8AuDW3KH-137" value="UniqueID" style="shape=partialRectangle;connectable=0;fillColor=none;top=0;left=0;bottom=0;right=0;align=left;spacingLeft=6;fontStyle=5;overflow=hidden;" vertex="1" parent="sjmtIl81N6Vw8AuDW3KH-135">
          <mxGeometry x="30" width="150" height="30" as="geometry">
            <mxRectangle width="150" height="30" as="alternateBounds" />
          </mxGeometry>
        </mxCell>
        <mxCell id="sjmtIl81N6Vw8AuDW3KH-138" value="" style="shape=partialRectangle;collapsible=0;dropTarget=0;pointerEvents=0;fillColor=none;top=0;left=0;bottom=0;right=0;points=[[0,0.5],[1,0.5]];portConstraint=eastwest;" vertex="1" parent="sjmtIl81N6Vw8AuDW3KH-134">
          <mxGeometry y="60" width="180" height="30" as="geometry" />
        </mxCell>
        <mxCell id="sjmtIl81N6Vw8AuDW3KH-139" value="" style="shape=partialRectangle;connectable=0;fillColor=none;top=0;left=0;bottom=0;right=0;editable=1;overflow=hidden;" vertex="1" parent="sjmtIl81N6Vw8AuDW3KH-138">
          <mxGeometry width="30" height="30" as="geometry">
            <mxRectangle width="30" height="30" as="alternateBounds" />
          </mxGeometry>
        </mxCell>
        <mxCell id="sjmtIl81N6Vw8AuDW3KH-140" value="Row 1" style="shape=partialRectangle;connectable=0;fillColor=none;top=0;left=0;bottom=0;right=0;align=left;spacingLeft=6;overflow=hidden;" vertex="1" parent="sjmtIl81N6Vw8AuDW3KH-138">
          <mxGeometry x="30" width="150" height="30" as="geometry">
            <mxRectangle width="150" height="30" as="alternateBounds" />
          </mxGeometry>
        </mxCell>
        <mxCell id="sjmtIl81N6Vw8AuDW3KH-141" value="" style="shape=partialRectangle;collapsible=0;dropTarget=0;pointerEvents=0;fillColor=none;top=0;left=0;bottom=0;right=0;points=[[0,0.5],[1,0.5]];portConstraint=eastwest;" vertex="1" parent="sjmtIl81N6Vw8AuDW3KH-134">
          <mxGeometry y="90" width="180" height="30" as="geometry" />
        </mxCell>
        <mxCell id="sjmtIl81N6Vw8AuDW3KH-142" value="" style="shape=partialRectangle;connectable=0;fillColor=none;top=0;left=0;bottom=0;right=0;editable=1;overflow=hidden;" vertex="1" parent="sjmtIl81N6Vw8AuDW3KH-141">
          <mxGeometry width="30" height="30" as="geometry">
            <mxRectangle width="30" height="30" as="alternateBounds" />
          </mxGeometry>
        </mxCell>
        <mxCell id="sjmtIl81N6Vw8AuDW3KH-143" value="Row 2" style="shape=partialRectangle;connectable=0;fillColor=none;top=0;left=0;bottom=0;right=0;align=left;spacingLeft=6;overflow=hidden;" vertex="1" parent="sjmtIl81N6Vw8AuDW3KH-141">
          <mxGeometry x="30" width="150" height="30" as="geometry">
            <mxRectangle width="150" height="30" as="alternateBounds" />
          </mxGeometry>
        </mxCell>
        <mxCell id="sjmtIl81N6Vw8AuDW3KH-144" value="" style="shape=partialRectangle;collapsible=0;dropTarget=0;pointerEvents=0;fillColor=none;top=0;left=0;bottom=0;right=0;points=[[0,0.5],[1,0.5]];portConstraint=eastwest;" vertex="1" parent="sjmtIl81N6Vw8AuDW3KH-134">
          <mxGeometry y="120" width="180" height="30" as="geometry" />
        </mxCell>
        <mxCell id="sjmtIl81N6Vw8AuDW3KH-145" value="" style="shape=partialRectangle;connectable=0;fillColor=none;top=0;left=0;bottom=0;right=0;editable=1;overflow=hidden;" vertex="1" parent="sjmtIl81N6Vw8AuDW3KH-144">
          <mxGeometry width="30" height="30" as="geometry">
            <mxRectangle width="30" height="30" as="alternateBounds" />
          </mxGeometry>
        </mxCell>
        <mxCell id="sjmtIl81N6Vw8AuDW3KH-146" value="Row 3" style="shape=partialRectangle;connectable=0;fillColor=none;top=0;left=0;bottom=0;right=0;align=left;spacingLeft=6;overflow=hidden;" vertex="1" parent="sjmtIl81N6Vw8AuDW3KH-144">
          <mxGeometry x="30" width="150" height="30" as="geometry">
            <mxRectangle width="150" height="30" as="alternateBounds" />
          </mxGeometry>
        </mxCell>
        <mxCell id="sjmtIl81N6Vw8AuDW3KH-149" value="" style="edgeStyle=none;html=1;endArrow=block;endFill=0;endSize=12;rounded=0;" edge="1" parent="1">
          <mxGeometry relative="1" as="geometry">
            <mxPoint x="10.000000000000002" y="470" as="targetPoint" />
            <mxPoint x="10" y="550" as="sourcePoint" />
          </mxGeometry>
        </mxCell>
        <mxCell id="sjmtIl81N6Vw8AuDW3KH-150" value="Veget_Fruits" style="shape=table;startSize=30;container=1;collapsible=1;childLayout=tableLayout;fixedRows=1;rowLines=0;fontStyle=1;align=center;resizeLast=1;" vertex="1" collapsed="1" parent="1">
          <mxGeometry x="-17" y="550" width="100" height="30" as="geometry">
            <mxRectangle x="-200" y="360" width="180" height="160" as="alternateBounds" />
          </mxGeometry>
        </mxCell>
        <mxCell id="sjmtIl81N6Vw8AuDW3KH-151" value="" style="shape=partialRectangle;collapsible=0;dropTarget=0;pointerEvents=0;fillColor=none;top=0;left=0;bottom=1;right=0;points=[[0,0.5],[1,0.5]];portConstraint=eastwest;" vertex="1" parent="sjmtIl81N6Vw8AuDW3KH-150">
          <mxGeometry y="30" width="180" height="30" as="geometry" />
        </mxCell>
        <mxCell id="sjmtIl81N6Vw8AuDW3KH-152" value="PK" style="shape=partialRectangle;connectable=0;fillColor=none;top=0;left=0;bottom=0;right=0;fontStyle=1;overflow=hidden;" vertex="1" parent="sjmtIl81N6Vw8AuDW3KH-151">
          <mxGeometry width="30" height="30" as="geometry">
            <mxRectangle width="30" height="30" as="alternateBounds" />
          </mxGeometry>
        </mxCell>
        <mxCell id="sjmtIl81N6Vw8AuDW3KH-153" value="UniqueID" style="shape=partialRectangle;connectable=0;fillColor=none;top=0;left=0;bottom=0;right=0;align=left;spacingLeft=6;fontStyle=5;overflow=hidden;" vertex="1" parent="sjmtIl81N6Vw8AuDW3KH-151">
          <mxGeometry x="30" width="150" height="30" as="geometry">
            <mxRectangle width="150" height="30" as="alternateBounds" />
          </mxGeometry>
        </mxCell>
        <mxCell id="sjmtIl81N6Vw8AuDW3KH-154" value="" style="shape=partialRectangle;collapsible=0;dropTarget=0;pointerEvents=0;fillColor=none;top=0;left=0;bottom=0;right=0;points=[[0,0.5],[1,0.5]];portConstraint=eastwest;" vertex="1" parent="sjmtIl81N6Vw8AuDW3KH-150">
          <mxGeometry y="60" width="180" height="30" as="geometry" />
        </mxCell>
        <mxCell id="sjmtIl81N6Vw8AuDW3KH-155" value="" style="shape=partialRectangle;connectable=0;fillColor=none;top=0;left=0;bottom=0;right=0;editable=1;overflow=hidden;" vertex="1" parent="sjmtIl81N6Vw8AuDW3KH-154">
          <mxGeometry width="30" height="30" as="geometry">
            <mxRectangle width="30" height="30" as="alternateBounds" />
          </mxGeometry>
        </mxCell>
        <mxCell id="sjmtIl81N6Vw8AuDW3KH-156" value="Row 1" style="shape=partialRectangle;connectable=0;fillColor=none;top=0;left=0;bottom=0;right=0;align=left;spacingLeft=6;overflow=hidden;" vertex="1" parent="sjmtIl81N6Vw8AuDW3KH-154">
          <mxGeometry x="30" width="150" height="30" as="geometry">
            <mxRectangle width="150" height="30" as="alternateBounds" />
          </mxGeometry>
        </mxCell>
        <mxCell id="sjmtIl81N6Vw8AuDW3KH-157" value="" style="shape=partialRectangle;collapsible=0;dropTarget=0;pointerEvents=0;fillColor=none;top=0;left=0;bottom=0;right=0;points=[[0,0.5],[1,0.5]];portConstraint=eastwest;" vertex="1" parent="sjmtIl81N6Vw8AuDW3KH-150">
          <mxGeometry y="90" width="180" height="30" as="geometry" />
        </mxCell>
        <mxCell id="sjmtIl81N6Vw8AuDW3KH-158" value="" style="shape=partialRectangle;connectable=0;fillColor=none;top=0;left=0;bottom=0;right=0;editable=1;overflow=hidden;" vertex="1" parent="sjmtIl81N6Vw8AuDW3KH-157">
          <mxGeometry width="30" height="30" as="geometry">
            <mxRectangle width="30" height="30" as="alternateBounds" />
          </mxGeometry>
        </mxCell>
        <mxCell id="sjmtIl81N6Vw8AuDW3KH-159" value="Row 2" style="shape=partialRectangle;connectable=0;fillColor=none;top=0;left=0;bottom=0;right=0;align=left;spacingLeft=6;overflow=hidden;" vertex="1" parent="sjmtIl81N6Vw8AuDW3KH-157">
          <mxGeometry x="30" width="150" height="30" as="geometry">
            <mxRectangle width="150" height="30" as="alternateBounds" />
          </mxGeometry>
        </mxCell>
        <mxCell id="sjmtIl81N6Vw8AuDW3KH-160" value="" style="shape=partialRectangle;collapsible=0;dropTarget=0;pointerEvents=0;fillColor=none;top=0;left=0;bottom=0;right=0;points=[[0,0.5],[1,0.5]];portConstraint=eastwest;" vertex="1" parent="sjmtIl81N6Vw8AuDW3KH-150">
          <mxGeometry y="120" width="180" height="30" as="geometry" />
        </mxCell>
        <mxCell id="sjmtIl81N6Vw8AuDW3KH-161" value="" style="shape=partialRectangle;connectable=0;fillColor=none;top=0;left=0;bottom=0;right=0;editable=1;overflow=hidden;" vertex="1" parent="sjmtIl81N6Vw8AuDW3KH-160">
          <mxGeometry width="30" height="30" as="geometry">
            <mxRectangle width="30" height="30" as="alternateBounds" />
          </mxGeometry>
        </mxCell>
        <mxCell id="sjmtIl81N6Vw8AuDW3KH-162" value="Row 3" style="shape=partialRectangle;connectable=0;fillColor=none;top=0;left=0;bottom=0;right=0;align=left;spacingLeft=6;overflow=hidden;" vertex="1" parent="sjmtIl81N6Vw8AuDW3KH-160">
          <mxGeometry x="30" width="150" height="30" as="geometry">
            <mxRectangle width="150" height="30" as="alternateBounds" />
          </mxGeometry>
        </mxCell>
        <mxCell id="sjmtIl81N6Vw8AuDW3KH-163" value="Chemicals" style="shape=table;startSize=30;container=1;collapsible=1;childLayout=tableLayout;fixedRows=1;rowLines=0;fontStyle=1;align=center;resizeLast=1;" vertex="1" collapsed="1" parent="1">
          <mxGeometry x="167" y="500" width="90" height="30" as="geometry">
            <mxRectangle x="240" y="440" width="180" height="160" as="alternateBounds" />
          </mxGeometry>
        </mxCell>
        <mxCell id="sjmtIl81N6Vw8AuDW3KH-164" value="" style="shape=partialRectangle;collapsible=0;dropTarget=0;pointerEvents=0;fillColor=none;top=0;left=0;bottom=1;right=0;points=[[0,0.5],[1,0.5]];portConstraint=eastwest;" vertex="1" parent="sjmtIl81N6Vw8AuDW3KH-163">
          <mxGeometry y="30" width="180" height="30" as="geometry" />
        </mxCell>
        <mxCell id="sjmtIl81N6Vw8AuDW3KH-165" value="PK" style="shape=partialRectangle;connectable=0;fillColor=none;top=0;left=0;bottom=0;right=0;fontStyle=1;overflow=hidden;" vertex="1" parent="sjmtIl81N6Vw8AuDW3KH-164">
          <mxGeometry width="30" height="30" as="geometry">
            <mxRectangle width="30" height="30" as="alternateBounds" />
          </mxGeometry>
        </mxCell>
        <mxCell id="sjmtIl81N6Vw8AuDW3KH-166" value="UniqueID" style="shape=partialRectangle;connectable=0;fillColor=none;top=0;left=0;bottom=0;right=0;align=left;spacingLeft=6;fontStyle=5;overflow=hidden;" vertex="1" parent="sjmtIl81N6Vw8AuDW3KH-164">
          <mxGeometry x="30" width="150" height="30" as="geometry">
            <mxRectangle width="150" height="30" as="alternateBounds" />
          </mxGeometry>
        </mxCell>
        <mxCell id="sjmtIl81N6Vw8AuDW3KH-167" value="" style="shape=partialRectangle;collapsible=0;dropTarget=0;pointerEvents=0;fillColor=none;top=0;left=0;bottom=0;right=0;points=[[0,0.5],[1,0.5]];portConstraint=eastwest;" vertex="1" parent="sjmtIl81N6Vw8AuDW3KH-163">
          <mxGeometry y="60" width="180" height="30" as="geometry" />
        </mxCell>
        <mxCell id="sjmtIl81N6Vw8AuDW3KH-168" value="" style="shape=partialRectangle;connectable=0;fillColor=none;top=0;left=0;bottom=0;right=0;editable=1;overflow=hidden;" vertex="1" parent="sjmtIl81N6Vw8AuDW3KH-167">
          <mxGeometry width="30" height="30" as="geometry">
            <mxRectangle width="30" height="30" as="alternateBounds" />
          </mxGeometry>
        </mxCell>
        <mxCell id="sjmtIl81N6Vw8AuDW3KH-169" value="Row 1" style="shape=partialRectangle;connectable=0;fillColor=none;top=0;left=0;bottom=0;right=0;align=left;spacingLeft=6;overflow=hidden;" vertex="1" parent="sjmtIl81N6Vw8AuDW3KH-167">
          <mxGeometry x="30" width="150" height="30" as="geometry">
            <mxRectangle width="150" height="30" as="alternateBounds" />
          </mxGeometry>
        </mxCell>
        <mxCell id="sjmtIl81N6Vw8AuDW3KH-170" value="" style="shape=partialRectangle;collapsible=0;dropTarget=0;pointerEvents=0;fillColor=none;top=0;left=0;bottom=0;right=0;points=[[0,0.5],[1,0.5]];portConstraint=eastwest;" vertex="1" parent="sjmtIl81N6Vw8AuDW3KH-163">
          <mxGeometry y="90" width="180" height="30" as="geometry" />
        </mxCell>
        <mxCell id="sjmtIl81N6Vw8AuDW3KH-171" value="" style="shape=partialRectangle;connectable=0;fillColor=none;top=0;left=0;bottom=0;right=0;editable=1;overflow=hidden;" vertex="1" parent="sjmtIl81N6Vw8AuDW3KH-170">
          <mxGeometry width="30" height="30" as="geometry">
            <mxRectangle width="30" height="30" as="alternateBounds" />
          </mxGeometry>
        </mxCell>
        <mxCell id="sjmtIl81N6Vw8AuDW3KH-172" value="Row 2" style="shape=partialRectangle;connectable=0;fillColor=none;top=0;left=0;bottom=0;right=0;align=left;spacingLeft=6;overflow=hidden;" vertex="1" parent="sjmtIl81N6Vw8AuDW3KH-170">
          <mxGeometry x="30" width="150" height="30" as="geometry">
            <mxRectangle width="150" height="30" as="alternateBounds" />
          </mxGeometry>
        </mxCell>
        <mxCell id="sjmtIl81N6Vw8AuDW3KH-173" value="" style="shape=partialRectangle;collapsible=0;dropTarget=0;pointerEvents=0;fillColor=none;top=0;left=0;bottom=0;right=0;points=[[0,0.5],[1,0.5]];portConstraint=eastwest;" vertex="1" parent="sjmtIl81N6Vw8AuDW3KH-163">
          <mxGeometry y="120" width="180" height="30" as="geometry" />
        </mxCell>
        <mxCell id="sjmtIl81N6Vw8AuDW3KH-174" value="" style="shape=partialRectangle;connectable=0;fillColor=none;top=0;left=0;bottom=0;right=0;editable=1;overflow=hidden;" vertex="1" parent="sjmtIl81N6Vw8AuDW3KH-173">
          <mxGeometry width="30" height="30" as="geometry">
            <mxRectangle width="30" height="30" as="alternateBounds" />
          </mxGeometry>
        </mxCell>
        <mxCell id="sjmtIl81N6Vw8AuDW3KH-175" value="Row 3" style="shape=partialRectangle;connectable=0;fillColor=none;top=0;left=0;bottom=0;right=0;align=left;spacingLeft=6;overflow=hidden;" vertex="1" parent="sjmtIl81N6Vw8AuDW3KH-173">
          <mxGeometry x="30" width="150" height="30" as="geometry">
            <mxRectangle width="150" height="30" as="alternateBounds" />
          </mxGeometry>
        </mxCell>
        <mxCell id="sjmtIl81N6Vw8AuDW3KH-176" value="Cosmetics" style="shape=table;startSize=30;container=1;collapsible=1;childLayout=tableLayout;fixedRows=1;rowLines=0;fontStyle=1;align=center;resizeLast=1;" vertex="1" collapsed="1" parent="1">
          <mxGeometry x="265" y="500" width="90" height="30" as="geometry">
            <mxRectangle x="240" y="440" width="180" height="160" as="alternateBounds" />
          </mxGeometry>
        </mxCell>
        <mxCell id="sjmtIl81N6Vw8AuDW3KH-177" value="" style="shape=partialRectangle;collapsible=0;dropTarget=0;pointerEvents=0;fillColor=none;top=0;left=0;bottom=1;right=0;points=[[0,0.5],[1,0.5]];portConstraint=eastwest;" vertex="1" parent="sjmtIl81N6Vw8AuDW3KH-176">
          <mxGeometry y="30" width="180" height="30" as="geometry" />
        </mxCell>
        <mxCell id="sjmtIl81N6Vw8AuDW3KH-178" value="PK" style="shape=partialRectangle;connectable=0;fillColor=none;top=0;left=0;bottom=0;right=0;fontStyle=1;overflow=hidden;" vertex="1" parent="sjmtIl81N6Vw8AuDW3KH-177">
          <mxGeometry width="30" height="30" as="geometry">
            <mxRectangle width="30" height="30" as="alternateBounds" />
          </mxGeometry>
        </mxCell>
        <mxCell id="sjmtIl81N6Vw8AuDW3KH-179" value="UniqueID" style="shape=partialRectangle;connectable=0;fillColor=none;top=0;left=0;bottom=0;right=0;align=left;spacingLeft=6;fontStyle=5;overflow=hidden;" vertex="1" parent="sjmtIl81N6Vw8AuDW3KH-177">
          <mxGeometry x="30" width="150" height="30" as="geometry">
            <mxRectangle width="150" height="30" as="alternateBounds" />
          </mxGeometry>
        </mxCell>
        <mxCell id="sjmtIl81N6Vw8AuDW3KH-180" value="" style="shape=partialRectangle;collapsible=0;dropTarget=0;pointerEvents=0;fillColor=none;top=0;left=0;bottom=0;right=0;points=[[0,0.5],[1,0.5]];portConstraint=eastwest;" vertex="1" parent="sjmtIl81N6Vw8AuDW3KH-176">
          <mxGeometry y="60" width="180" height="30" as="geometry" />
        </mxCell>
        <mxCell id="sjmtIl81N6Vw8AuDW3KH-181" value="" style="shape=partialRectangle;connectable=0;fillColor=none;top=0;left=0;bottom=0;right=0;editable=1;overflow=hidden;" vertex="1" parent="sjmtIl81N6Vw8AuDW3KH-180">
          <mxGeometry width="30" height="30" as="geometry">
            <mxRectangle width="30" height="30" as="alternateBounds" />
          </mxGeometry>
        </mxCell>
        <mxCell id="sjmtIl81N6Vw8AuDW3KH-182" value="Row 1" style="shape=partialRectangle;connectable=0;fillColor=none;top=0;left=0;bottom=0;right=0;align=left;spacingLeft=6;overflow=hidden;" vertex="1" parent="sjmtIl81N6Vw8AuDW3KH-180">
          <mxGeometry x="30" width="150" height="30" as="geometry">
            <mxRectangle width="150" height="30" as="alternateBounds" />
          </mxGeometry>
        </mxCell>
        <mxCell id="sjmtIl81N6Vw8AuDW3KH-183" value="" style="shape=partialRectangle;collapsible=0;dropTarget=0;pointerEvents=0;fillColor=none;top=0;left=0;bottom=0;right=0;points=[[0,0.5],[1,0.5]];portConstraint=eastwest;" vertex="1" parent="sjmtIl81N6Vw8AuDW3KH-176">
          <mxGeometry y="90" width="180" height="30" as="geometry" />
        </mxCell>
        <mxCell id="sjmtIl81N6Vw8AuDW3KH-184" value="" style="shape=partialRectangle;connectable=0;fillColor=none;top=0;left=0;bottom=0;right=0;editable=1;overflow=hidden;" vertex="1" parent="sjmtIl81N6Vw8AuDW3KH-183">
          <mxGeometry width="30" height="30" as="geometry">
            <mxRectangle width="30" height="30" as="alternateBounds" />
          </mxGeometry>
        </mxCell>
        <mxCell id="sjmtIl81N6Vw8AuDW3KH-185" value="Row 2" style="shape=partialRectangle;connectable=0;fillColor=none;top=0;left=0;bottom=0;right=0;align=left;spacingLeft=6;overflow=hidden;" vertex="1" parent="sjmtIl81N6Vw8AuDW3KH-183">
          <mxGeometry x="30" width="150" height="30" as="geometry">
            <mxRectangle width="150" height="30" as="alternateBounds" />
          </mxGeometry>
        </mxCell>
        <mxCell id="sjmtIl81N6Vw8AuDW3KH-186" value="" style="shape=partialRectangle;collapsible=0;dropTarget=0;pointerEvents=0;fillColor=none;top=0;left=0;bottom=0;right=0;points=[[0,0.5],[1,0.5]];portConstraint=eastwest;" vertex="1" parent="sjmtIl81N6Vw8AuDW3KH-176">
          <mxGeometry y="120" width="180" height="30" as="geometry" />
        </mxCell>
        <mxCell id="sjmtIl81N6Vw8AuDW3KH-187" value="" style="shape=partialRectangle;connectable=0;fillColor=none;top=0;left=0;bottom=0;right=0;editable=1;overflow=hidden;" vertex="1" parent="sjmtIl81N6Vw8AuDW3KH-186">
          <mxGeometry width="30" height="30" as="geometry">
            <mxRectangle width="30" height="30" as="alternateBounds" />
          </mxGeometry>
        </mxCell>
        <mxCell id="sjmtIl81N6Vw8AuDW3KH-188" value="Row 3" style="shape=partialRectangle;connectable=0;fillColor=none;top=0;left=0;bottom=0;right=0;align=left;spacingLeft=6;overflow=hidden;" vertex="1" parent="sjmtIl81N6Vw8AuDW3KH-186">
          <mxGeometry x="30" width="150" height="30" as="geometry">
            <mxRectangle width="150" height="30" as="alternateBounds" />
          </mxGeometry>
        </mxCell>
        <mxCell id="sjmtIl81N6Vw8AuDW3KH-189" value="Household" style="shape=table;startSize=30;container=1;collapsible=1;childLayout=tableLayout;fixedRows=1;rowLines=0;fontStyle=1;align=center;resizeLast=1;" vertex="1" collapsed="1" parent="1">
          <mxGeometry x="360" y="500" width="90" height="30" as="geometry">
            <mxRectangle x="240" y="440" width="180" height="160" as="alternateBounds" />
          </mxGeometry>
        </mxCell>
        <mxCell id="sjmtIl81N6Vw8AuDW3KH-190" value="" style="shape=partialRectangle;collapsible=0;dropTarget=0;pointerEvents=0;fillColor=none;top=0;left=0;bottom=1;right=0;points=[[0,0.5],[1,0.5]];portConstraint=eastwest;" vertex="1" parent="sjmtIl81N6Vw8AuDW3KH-189">
          <mxGeometry y="30" width="180" height="30" as="geometry" />
        </mxCell>
        <mxCell id="sjmtIl81N6Vw8AuDW3KH-191" value="PK" style="shape=partialRectangle;connectable=0;fillColor=none;top=0;left=0;bottom=0;right=0;fontStyle=1;overflow=hidden;" vertex="1" parent="sjmtIl81N6Vw8AuDW3KH-190">
          <mxGeometry width="30" height="30" as="geometry">
            <mxRectangle width="30" height="30" as="alternateBounds" />
          </mxGeometry>
        </mxCell>
        <mxCell id="sjmtIl81N6Vw8AuDW3KH-192" value="UniqueID" style="shape=partialRectangle;connectable=0;fillColor=none;top=0;left=0;bottom=0;right=0;align=left;spacingLeft=6;fontStyle=5;overflow=hidden;" vertex="1" parent="sjmtIl81N6Vw8AuDW3KH-190">
          <mxGeometry x="30" width="150" height="30" as="geometry">
            <mxRectangle width="150" height="30" as="alternateBounds" />
          </mxGeometry>
        </mxCell>
        <mxCell id="sjmtIl81N6Vw8AuDW3KH-193" value="" style="shape=partialRectangle;collapsible=0;dropTarget=0;pointerEvents=0;fillColor=none;top=0;left=0;bottom=0;right=0;points=[[0,0.5],[1,0.5]];portConstraint=eastwest;" vertex="1" parent="sjmtIl81N6Vw8AuDW3KH-189">
          <mxGeometry y="60" width="180" height="30" as="geometry" />
        </mxCell>
        <mxCell id="sjmtIl81N6Vw8AuDW3KH-194" value="" style="shape=partialRectangle;connectable=0;fillColor=none;top=0;left=0;bottom=0;right=0;editable=1;overflow=hidden;" vertex="1" parent="sjmtIl81N6Vw8AuDW3KH-193">
          <mxGeometry width="30" height="30" as="geometry">
            <mxRectangle width="30" height="30" as="alternateBounds" />
          </mxGeometry>
        </mxCell>
        <mxCell id="sjmtIl81N6Vw8AuDW3KH-195" value="Row 1" style="shape=partialRectangle;connectable=0;fillColor=none;top=0;left=0;bottom=0;right=0;align=left;spacingLeft=6;overflow=hidden;" vertex="1" parent="sjmtIl81N6Vw8AuDW3KH-193">
          <mxGeometry x="30" width="150" height="30" as="geometry">
            <mxRectangle width="150" height="30" as="alternateBounds" />
          </mxGeometry>
        </mxCell>
        <mxCell id="sjmtIl81N6Vw8AuDW3KH-196" value="" style="shape=partialRectangle;collapsible=0;dropTarget=0;pointerEvents=0;fillColor=none;top=0;left=0;bottom=0;right=0;points=[[0,0.5],[1,0.5]];portConstraint=eastwest;" vertex="1" parent="sjmtIl81N6Vw8AuDW3KH-189">
          <mxGeometry y="90" width="180" height="30" as="geometry" />
        </mxCell>
        <mxCell id="sjmtIl81N6Vw8AuDW3KH-197" value="" style="shape=partialRectangle;connectable=0;fillColor=none;top=0;left=0;bottom=0;right=0;editable=1;overflow=hidden;" vertex="1" parent="sjmtIl81N6Vw8AuDW3KH-196">
          <mxGeometry width="30" height="30" as="geometry">
            <mxRectangle width="30" height="30" as="alternateBounds" />
          </mxGeometry>
        </mxCell>
        <mxCell id="sjmtIl81N6Vw8AuDW3KH-198" value="Row 2" style="shape=partialRectangle;connectable=0;fillColor=none;top=0;left=0;bottom=0;right=0;align=left;spacingLeft=6;overflow=hidden;" vertex="1" parent="sjmtIl81N6Vw8AuDW3KH-196">
          <mxGeometry x="30" width="150" height="30" as="geometry">
            <mxRectangle width="150" height="30" as="alternateBounds" />
          </mxGeometry>
        </mxCell>
        <mxCell id="sjmtIl81N6Vw8AuDW3KH-199" value="" style="shape=partialRectangle;collapsible=0;dropTarget=0;pointerEvents=0;fillColor=none;top=0;left=0;bottom=0;right=0;points=[[0,0.5],[1,0.5]];portConstraint=eastwest;" vertex="1" parent="sjmtIl81N6Vw8AuDW3KH-189">
          <mxGeometry y="120" width="180" height="30" as="geometry" />
        </mxCell>
        <mxCell id="sjmtIl81N6Vw8AuDW3KH-200" value="" style="shape=partialRectangle;connectable=0;fillColor=none;top=0;left=0;bottom=0;right=0;editable=1;overflow=hidden;" vertex="1" parent="sjmtIl81N6Vw8AuDW3KH-199">
          <mxGeometry width="30" height="30" as="geometry">
            <mxRectangle width="30" height="30" as="alternateBounds" />
          </mxGeometry>
        </mxCell>
        <mxCell id="sjmtIl81N6Vw8AuDW3KH-201" value="Row 3" style="shape=partialRectangle;connectable=0;fillColor=none;top=0;left=0;bottom=0;right=0;align=left;spacingLeft=6;overflow=hidden;" vertex="1" parent="sjmtIl81N6Vw8AuDW3KH-199">
          <mxGeometry x="30" width="150" height="30" as="geometry">
            <mxRectangle width="150" height="30" as="alternateBounds" />
          </mxGeometry>
        </mxCell>
        <mxCell id="sjmtIl81N6Vw8AuDW3KH-207" value="" style="edgeStyle=none;html=1;endArrow=block;endFill=0;endSize=12;rounded=0;exitX=0.674;exitY=0;exitDx=0;exitDy=0;exitPerimeter=0;" edge="1" parent="1" source="sjmtIl81N6Vw8AuDW3KH-163">
          <mxGeometry relative="1" as="geometry">
            <mxPoint x="228" y="470" as="targetPoint" />
            <mxPoint x="200" y="550" as="sourcePoint" />
          </mxGeometry>
        </mxCell>
        <mxCell id="sjmtIl81N6Vw8AuDW3KH-208" value="" style="edgeStyle=none;html=1;endArrow=block;endFill=0;endSize=12;rounded=0;entryX=0.447;entryY=1.067;entryDx=0;entryDy=0;exitX=0.422;exitY=0;exitDx=0;exitDy=0;exitPerimeter=0;entryPerimeter=0;" edge="1" parent="1" source="sjmtIl81N6Vw8AuDW3KH-176" target="sjmtIl81N6Vw8AuDW3KH-31">
          <mxGeometry relative="1" as="geometry">
            <mxPoint x="270" y="470" as="targetPoint" />
            <mxPoint x="272" y="510" as="sourcePoint" />
          </mxGeometry>
        </mxCell>
        <mxCell id="sjmtIl81N6Vw8AuDW3KH-210" value="" style="edgeStyle=none;html=1;endArrow=block;endFill=0;endSize=12;rounded=0;" edge="1" parent="1">
          <mxGeometry relative="1" as="geometry">
            <mxPoint x="391.58" y="470" as="targetPoint" />
            <mxPoint x="392" y="500" as="sourcePoint" />
          </mxGeometry>
        </mxCell>
      </root>
    </mxGraphModel>
  </diagram>
</mxfile>
